# Blender v2.80 (sub 75) OBJ File: 'bot.blend'
# www.blender.org
mtllib Core.mtl
o Core_body
v -0.925500 0.210605 -0.843149
v -1.034290 -0.144890 -1.000000
v 0.882864 0.210605 -0.724050
v 0.965710 -0.144890 -0.858745
v -1.034290 0.210605 -1.000000
v 0.965710 0.210605 -0.858745
v -0.925500 0.352796 -0.843149
v 0.659723 0.352796 -0.724050
v -0.610749 -0.403912 -0.606782
v 0.602815 -0.403912 -0.606782
v -0.822520 -0.225204 -0.803391
v 0.784262 -0.225204 -0.689908
v -0.925500 0.210605 0.843150
v -1.034290 -0.144890 1.000000
v 0.882864 0.210605 0.724050
v 0.965710 -0.144890 0.858744
v 1.648260 -0.144890 -0.000001
v -1.408380 0.210605 0.000000
v 1.648260 0.210605 -0.000001
v -1.408380 -0.144890 0.000000
v -1.034290 0.210605 1.000000
v 0.965710 0.210605 0.858744
v -0.925500 0.352796 0.843150
v -1.182238 0.210605 0.000000
v 1.351298 0.210605 -0.000000
v 0.659723 0.352796 0.724050
v -1.182238 0.352796 0.000000
v 1.128157 0.352796 -0.000000
v -0.610749 -0.403912 0.606782
v 0.602815 -0.403912 0.606782
v 1.016974 -0.403912 -0.000000
v -0.837740 -0.403912 0.000000
v -1.123060 -0.225204 0.000000
v 1.332617 -0.225204 -0.000000
v -0.822519 -0.225204 0.803391
v 0.784263 -0.225204 0.689907
vt 0.608604 0.144606
vt 0.605707 0.230394
vt 0.605707 0.230394
vt 0.608604 0.144606
vt 0.375000 0.250000
vt 0.625000 0.250000
vt 0.625000 0.500000
vt 0.375000 0.500000
vt 0.125000 0.625000
vt 0.375000 0.625000
vt 0.375000 0.750000
vt 0.125000 0.750000
vt 0.625000 0.625000
vt 0.375000 0.625000
vt 0.392736 0.230394
vt 0.625000 0.250000
vt 0.375000 0.250000
vt 0.389904 0.144606
vt 0.375000 0.125000
vt 0.625000 0.125000
vt 0.389904 0.144606
vt 0.392736 0.230394
vt 0.392736 0.230394
vt 0.605707 0.230394
vt 0.125000 0.625000
vt 0.125000 0.750000
vt 0.125000 0.750000
vt 0.125000 0.625000
vt 0.375000 0.250000
vt 0.375000 0.500000
vt 0.375000 0.500000
vt 0.375000 0.250000
vt 0.375000 0.625000
vt 0.375000 0.625000
vt 0.605707 0.230394
vt 0.375000 0.250000
vt 0.375000 0.500000
vt 0.625000 0.500000
vt 0.625000 0.250000
vt 0.375000 0.500000
vt 0.125000 0.750000
vt 0.125000 0.750000
vt 0.375000 0.750000
vt 0.392736 0.230394
vt 0.375000 0.250000
vt 0.625000 0.250000
vt 0.125000 0.750000
vt 0.375000 0.250000
vt 0.375000 0.250000
vt 0.375000 0.500000
vt 0.000000 0.000000
vt 0.000000 0.000000
vt 0.000000 0.000000
vt 0.000000 0.000000
vn 0.5076 0.7966 -0.3284
vn 0.0705 0.0000 -0.9975
vn -0.9366 0.0000 -0.3504
vn 0.7828 0.0000 -0.6222
vn 0.0000 1.0000 0.0000
vn -0.9566 0.0000 -0.2913
vn 0.0699 0.0549 -0.9960
vn -0.5207 -0.8313 -0.1948
vn 0.0317 -0.6144 -0.7884
vn 0.5003 -0.7822 -0.3714
vn 0.2420 -0.9510 -0.1923
vn 0.0285 -0.9142 -0.4042
vn -0.2696 -0.9577 -0.1008
vn 0.5076 0.7966 0.3284
vn 0.0705 0.0000 0.9975
vn 0.0000 -1.0000 0.0000
vn -0.9366 0.0000 0.3504
vn 0.7828 0.0000 0.6222
vn -0.9566 0.0000 0.2913
vn 0.0699 0.0549 0.9960
vn -0.5206 -0.8313 0.1948
vn 0.0317 -0.6144 0.7884
vn 0.5003 -0.7822 0.3714
vn 0.2420 -0.9510 0.1923
vn 0.0285 -0.9142 0.4042
vn -0.2696 -0.9577 0.1008
vn -0.0000 0.0000 -1.0000
usemtl grey
s off
f 25/1/1 3/2/1 8/3/1 28/4/1
f 2/5/2 5/6/2 6/7/2 4/8/2
f 20/9/3 18/10/3 5/11/3 2/12/3
f 4/8/4 6/7/4 19/13/4 17/14/4
f 1/15/5 3/2/5 6/16/5 5/17/5
f 24/18/5 1/15/5 5/17/5 18/19/5
f 3/2/5 25/1/5 19/20/5 6/16/5
f 1/15/6 24/18/6 27/21/6 7/22/6
f 3/2/7 1/15/7 7/22/7 8/3/7
f 8/3/5 7/22/5 27/21/5 23/23/5 26/24/5 28/4/5
f 33/25/8 11/26/8 9/27/8 32/28/8
f 11/29/9 12/30/9 10/31/9 9/32/9
f 12/30/10 34/33/10 31/34/10 10/31/10
f 4/8/11 17/14/11 34/33/11 12/30/11
f 2/5/12 4/8/12 12/30/12 11/29/12
f 20/9/13 2/12/13 11/26/13 33/25/13
f 25/1/14 28/4/14 26/24/14 15/35/14
f 14/36/15 16/37/15 22/38/15 21/39/15
f 10/31/16 31/34/16 30/40/16 29/41/16 32/28/16 9/32/16
f 20/9/17 14/42/17 21/43/17 18/10/17
f 16/37/18 17/14/18 19/13/18 22/38/18
f 13/44/5 21/45/5 22/46/5 15/35/5
f 24/18/5 18/19/5 21/45/5 13/44/5
f 15/35/5 22/46/5 19/20/5 25/1/5
f 13/44/19 23/23/19 27/21/19 24/18/19
f 15/35/20 26/24/20 23/23/20 13/44/20
f 33/25/21 32/28/21 29/41/21 35/47/21
f 35/48/22 29/49/22 30/40/22 36/50/22
f 36/50/23 30/40/23 31/34/23 34/33/23
f 16/37/24 36/50/24 34/33/24 17/14/24
f 14/36/25 35/48/25 36/50/25 16/37/25
f 20/9/26 33/25/26 35/47/26 14/42/26
f 17/51/27 34/52/27 33/53/27 20/54/27
