# Blender v2.80 (sub 75) OBJ File: 'bot.blend'
# www.blender.org
mtllib Core.mtl
o Core_body
v 0.843149 0.925500 0.210605
v 1.000000 1.034290 -0.144890
v 0.724050 -0.882864 0.210605
v 0.858745 -0.965710 -0.144890
v 1.000000 1.034290 0.210605
v 0.858745 -0.965710 0.210605
v 0.843149 0.925500 0.352796
v 0.724050 -0.659723 0.352796
v 0.606782 0.610749 -0.403912
v 0.606782 -0.602815 -0.403912
v 0.803391 0.822520 -0.225204
v 0.689908 -0.784262 -0.225204
v -0.843150 0.925500 0.210605
v -1.000000 1.034290 -0.144890
v -0.724050 -0.882864 0.210605
v -0.858744 -0.965710 -0.144890
v 0.000001 -1.648260 -0.144890
v -0.000000 1.408380 0.210605
v 0.000001 -1.648260 0.210605
v -0.000000 1.408380 -0.144890
v -1.000000 1.034290 0.210605
v -0.858744 -0.965710 0.210605
v -0.843150 0.925500 0.352796
v -0.000000 1.182238 0.210605
v 0.000000 -1.351298 0.210605
v -0.724050 -0.659723 0.352796
v -0.000000 1.182238 0.352796
v 0.000000 -1.128157 0.352796
v -0.606782 0.610749 -0.403912
v -0.606782 -0.602815 -0.403912
v 0.000000 -1.016974 -0.403912
v -0.000000 0.837740 -0.403912
v -0.000000 1.123060 -0.225204
v 0.000000 -1.332617 -0.225204
v -0.803391 0.822519 -0.225204
v -0.689907 -0.784263 -0.225204
vt 0.605707 0.230394
vt 0.608604 0.144606
vt 0.608604 0.144606
vt 0.625000 0.250000
vt 0.375000 0.500000
vt 0.375000 0.250000
vt 0.375000 0.625000
vt 0.125000 0.750000
vt 0.125000 0.625000
vt 0.625000 0.500000
vt 0.375000 0.625000
vt 0.392736 0.230394
vt 0.625000 0.250000
vt 0.375000 0.250000
vt 0.375000 0.125000
vt 0.389904 0.144606
vt 0.392736 0.230394
vt 0.605707 0.230394
vt 0.389904 0.144606
vt 0.605707 0.230394
vt 0.125000 0.625000
vt 0.125000 0.750000
vt 0.125000 0.625000
vt 0.375000 0.250000
vt 0.375000 0.500000
vt 0.375000 0.250000
vt 0.375000 0.500000
vt 0.375000 0.625000
vt 0.375000 0.625000
vt 0.125000 0.750000
vt 0.605707 0.230394
vt 0.375000 0.500000
vt 0.625000 0.250000
vt 0.375000 0.250000
vt 0.375000 0.500000
vt 0.125000 0.750000
vt 0.625000 0.500000
vt 0.392736 0.230394
vt 0.625000 0.250000
vt 0.392736 0.230394
vt 0.125000 0.750000
vt 0.125000 0.750000
vt 0.375000 0.250000
vt 0.375000 0.500000
vt 0.000000 0.000000
vt 0.000000 0.000000
vt 0.000000 0.000000
vt 0.375000 0.750000
vt 0.625000 0.625000
vt 0.625000 0.125000
vt 0.375000 0.750000
vt 0.375000 0.250000
vt 0.375000 0.250000
vt 0.000000 0.000000
vn 0.3284 -0.5076 0.7966
vn 0.9975 -0.0705 0.0000
vn 0.3504 0.9366 0.0000
vn 0.6222 -0.7828 0.0000
vn 0.0000 0.0000 1.0000
vn 0.2913 0.9566 0.0000
vn 0.9926 -0.0654 0.1026
vn 0.1948 0.5207 -0.8313
vn 0.6726 0.0000 -0.7400
vn 0.3791 -0.5554 -0.7402
vn 0.1923 -0.2420 -0.9510
vn 0.4042 -0.0285 -0.9142
vn 0.1008 0.2696 -0.9577
vn -0.3284 -0.5076 0.7966
vn -0.9975 -0.0705 0.0000
vn 0.0000 0.0000 -1.0000
vn -0.3504 0.9366 0.0000
vn -0.6222 -0.7828 0.0000
vn -0.2913 0.9566 0.0000
vn -0.9926 -0.0654 0.1026
vn -0.1948 0.5206 -0.8313
vn -0.8794 -0.0621 -0.4721
vn -0.3646 -0.4588 -0.8103
vn -0.1923 -0.2420 -0.9510
vn -0.4042 -0.0285 -0.9142
vn -0.1008 0.2696 -0.9577
vn 1.0000 0.0000 0.0000
vn 0.9972 -0.0749 0.0000
vn 0.8794 -0.0621 -0.4721
vn 0.3646 -0.4588 -0.8103
vn -0.9972 -0.0749 0.0000
vn -0.6726 -0.0000 -0.7400
vn -0.3791 -0.5554 -0.7402
usemtl grey
s off
f 3/1/1 28/2/1 25/3/1
f 5/4/2 4/5/2 2/6/2
f 18/7/3 2/8/3 20/9/3
f 6/10/4 17/11/4 4/5/4
f 1/12/5 6/13/5 5/14/5
f 1/12/5 18/15/5 24/16/5
f 25/3/5 6/13/5 3/1/5
f 24/16/6 7/17/6 1/12/6
f 1/12/7 8/18/7 3/1/7
f 8/18/5 27/19/5 26/20/5
f 33/21/8 9/22/8 32/23/8
f 11/24/9 10/25/9 9/26/9
f 12/27/10 31/28/10 10/25/10
f 4/5/11 34/29/11 12/27/11
f 4/5/12 11/24/12 2/6/12
f 20/9/13 11/30/13 33/21/13
f 28/2/14 15/31/14 25/3/14
f 16/32/15 21/33/15 14/34/15
f 10/25/16 30/35/16 32/23/16
f 14/36/17 18/7/17 20/9/17
f 17/11/18 22/37/18 16/32/18
f 13/38/5 22/39/5 15/31/5
f 18/15/5 13/38/5 24/16/5
f 22/39/5 25/3/5 15/31/5
f 23/40/19 24/16/19 13/38/19
f 26/20/20 13/38/20 15/31/20
f 33/21/21 29/41/21 35/42/21
f 35/43/22 30/35/22 36/44/22
f 36/44/23 31/28/23 34/29/23
f 16/32/24 34/29/24 17/11/24
f 35/43/25 16/32/25 14/34/25
f 20/9/26 35/42/26 14/36/26
f 34/45/27 20/46/27 17/47/27
f 3/1/1 8/18/1 28/2/1
f 5/4/2 6/10/2 4/5/2
f 18/7/3 5/48/3 2/8/3
f 6/10/4 19/49/4 17/11/4
f 1/12/5 3/1/5 6/13/5
f 1/12/5 5/14/5 18/15/5
f 25/3/5 19/50/5 6/13/5
f 24/16/6 27/19/6 7/17/6
f 1/12/28 7/17/28 8/18/28
f 28/2/5 8/18/5 26/20/5
f 8/18/5 7/17/5 27/19/5
f 26/20/5 27/19/5 23/40/5
f 33/21/8 11/30/8 9/22/8
f 11/24/29 12/27/29 10/25/29
f 12/27/30 34/29/30 31/28/30
f 4/5/11 17/11/11 34/29/11
f 4/5/12 12/27/12 11/24/12
f 20/9/13 2/8/13 11/30/13
f 28/2/14 26/20/14 15/31/14
f 16/32/15 22/37/15 21/33/15
f 9/26/16 10/25/16 32/23/16
f 10/25/16 31/28/16 30/35/16
f 32/23/16 30/35/16 29/41/16
f 14/36/17 21/51/17 18/7/17
f 17/11/18 19/49/18 22/37/18
f 13/38/5 21/52/5 22/39/5
f 18/15/5 21/52/5 13/38/5
f 22/39/5 19/50/5 25/3/5
f 23/40/19 27/19/19 24/16/19
f 26/20/31 23/40/31 13/38/31
f 33/21/21 32/23/21 29/41/21
f 35/43/32 29/53/32 30/35/32
f 36/44/33 30/35/33 31/28/33
f 16/32/24 36/44/24 34/29/24
f 35/43/25 36/44/25 16/32/25
f 20/9/26 33/21/26 35/42/26
f 34/45/27 33/54/27 20/46/27
