# Blender v2.80 (sub 75) OBJ File: 'bot.blend'
# www.blender.org
mtllib railgun.mtl
o railgun
v 0.144250 -0.189507 -0.298085
v 0.144250 -0.189507 0.325892
v -0.144250 -0.189507 -0.298085
v -0.144250 -0.189507 0.325892
v 0.144249 1.936757 -0.298085
v 0.144249 1.936757 0.325892
v -0.144251 1.936757 -0.298085
v -0.144251 1.936757 0.325892
v 0.037212 0.127857 -0.273622
v -0.037212 -0.189507 -0.298085
v -0.037212 -0.189507 0.325892
v 0.037212 -0.189507 0.325892
v -0.037213 1.936757 -0.298085
v 0.037212 1.936757 -0.298085
v 0.037212 1.819569 0.301429
v -0.037213 1.936757 0.325892
v 0.037212 0.127857 0.301429
v 0.037212 1.936757 0.325892
v -0.037213 1.819569 0.301429
v -0.037213 0.127857 0.301429
v 0.037212 1.819569 -0.273622
v 0.037212 -0.189507 -0.298085
v -0.037213 0.127857 -0.273622
v -0.037213 1.819569 -0.273622
v 0.184464 -2.257994 -0.425323
v 0.184464 -2.257994 0.383612
v -0.184463 -2.257994 -0.425323
v -0.184463 -2.257994 0.383612
v -0.037212 -2.257994 -0.425323
v -0.037212 -2.257994 0.383612
v 0.037213 -2.257994 0.383612
v 0.037213 -2.257994 -0.425323
v -0.037212 -0.462968 -0.425323
v -0.184463 -0.462968 -0.425323
v -0.037212 -0.462968 0.383612
v -0.184463 -0.462968 0.383612
v 0.184463 -0.462968 0.383612
v 0.184463 -0.462968 -0.425323
v 0.037212 -0.462968 -0.425323
v 0.037212 -0.462968 0.383612
vt 0.875000 0.500000
vt 0.625000 0.592754
vt 0.625000 0.500000
vt 0.625000 0.250000
vt 0.375000 0.500000
vt 0.375000 0.250000
vt 0.625000 0.750000
vt 0.375000 1.000000
vt 0.375000 0.750000
vt 0.625000 1.000000
vt 0.375000 1.000000
vt 0.375000 1.000000
vt 0.375000 0.592754
vt 0.875000 0.657246
vt 0.625000 0.657246
vt 0.375000 0.657246
vt 0.125000 0.750000
vt 0.125000 0.657246
vt 0.125000 0.592754
vt 0.125000 0.500000
vt 0.625000 0.649601
vt 0.875000 0.600399
vt 0.875000 0.649601
vt 0.125000 0.649601
vt 0.375000 0.600399
vt 0.375000 0.649601
vt 0.625000 0.600399
vt 0.375000 0.149601
vt 0.625000 0.100399
vt 0.625000 0.149601
vt 0.125000 0.592754
vt 0.125000 0.500000
vt 0.125000 0.500000
vt 0.875000 0.592754
vt 0.125000 0.600399
vt 0.375000 0.157246
vt 0.375000 0.100399
vt 0.625000 0.092754
vt 0.625000 0.157246
vt 0.375000 0.250000
vt 0.375000 0.157246
vt 0.625000 0.000000
vt 0.375000 0.092754
vt 0.375000 0.000000
vt 0.125000 0.750000
vt 0.125000 0.657246
vt 0.125000 0.657246
vt 0.625000 0.157246
vt 0.375000 0.157246
vt 0.875000 0.500000
vt 0.875000 0.592754
vt 0.875000 0.592754
vt 0.375000 0.250000
vt 0.625000 0.250000
vt 0.625000 0.250000
vt 0.875000 0.657246
vt 0.875000 0.750000
vt 0.875000 0.750000
vt 0.375000 0.092754
vt 0.625000 0.092754
vt 0.625000 0.092754
vt 0.375000 0.092754
vt 0.875000 0.750000
vt 0.625000 1.000000
vt 0.625000 1.000000
vt 0.125000 0.592754
vt 0.625000 0.157246
vt 0.125000 0.750000
vt 0.875000 0.500000
vt 0.875000 0.657246
vn 0.0000 0.0000 1.0000
vn -1.0000 -0.0000 0.0000
vn 1.0000 0.0000 0.0000
vn 0.0000 1.0000 0.0000
vn -0.0000 0.0000 -1.0000
vn 0.0000 -1.0000 0.0000
vn -0.9894 0.1455 0.0000
vn -0.0000 0.2065 0.9784
vn -0.0000 0.4219 -0.9067
vn 0.9894 0.1455 0.0000
usemtl grey
s off
f 4/1/1 16/2/1 8/3/1
f 4/4/2 7/5/2 3/6/2
f 6/7/3 1/8/3 5/9/3
f 37/10/3 25/11/3 38/12/3
f 8/3/4 13/13/4 7/5/4
f 12/14/1 6/7/1 18/15/1
f 14/16/5 1/17/5 22/18/5
f 18/15/4 5/9/4 14/16/4
f 7/5/5 10/19/5 3/20/5
f 15/21/1 20/22/1 17/23/1
f 9/24/5 24/25/5 21/26/5
f 21/26/4 19/27/4 15/21/4
f 23/28/6 17/29/6 20/30/6
f 33/31/5 27/32/5 34/33/5
f 17/23/2 18/15/2 15/21/2
f 20/22/3 16/2/3 11/34/3
f 9/24/2 14/16/2 22/18/2
f 23/35/3 13/13/3 24/25/3
f 15/21/2 14/16/2 21/26/2
f 24/25/3 16/2/3 19/27/3
f 20/30/3 10/36/3 23/28/3
f 9/37/2 12/38/2 17/29/2
f 30/39/6 27/40/6 29/41/6
f 26/42/6 32/43/6 25/44/6
f 38/45/5 32/46/5 39/47/5
f 35/48/3 29/41/3 33/49/3
f 36/50/1 30/51/1 35/52/1
f 34/53/2 28/54/2 36/55/2
f 40/56/1 26/57/1 37/58/1
f 39/59/2 31/60/2 40/61/2
f 3/6/7 36/55/7 4/4/7
f 4/1/8 35/52/8 11/34/8
f 10/36/3 35/48/3 33/49/3
f 3/20/9 33/31/9 34/33/9
f 22/62/2 40/61/2 12/38/2
f 2/63/8 40/56/8 37/58/8
f 1/17/9 39/47/9 22/18/9
f 1/8/10 37/10/10 38/12/10
f 4/1/1 11/34/1 16/2/1
f 4/4/2 8/3/2 7/5/2
f 6/7/3 2/64/3 1/8/3
f 37/10/3 26/65/3 25/11/3
f 8/3/4 16/2/4 13/13/4
f 12/14/1 2/63/1 6/7/1
f 14/16/5 5/9/5 1/17/5
f 18/15/4 6/7/4 5/9/4
f 7/5/5 13/13/5 10/19/5
f 15/21/1 19/27/1 20/22/1
f 9/24/5 23/35/5 24/25/5
f 21/26/4 24/25/4 19/27/4
f 23/28/6 9/37/6 17/29/6
f 33/31/5 29/66/5 27/32/5
f 17/23/2 12/14/2 18/15/2
f 20/22/3 19/27/3 16/2/3
f 9/24/2 21/26/2 14/16/2
f 23/35/3 10/19/3 13/13/3
f 15/21/2 18/15/2 14/16/2
f 24/25/3 13/13/3 16/2/3
f 20/30/3 11/67/3 10/36/3
f 9/37/2 22/62/2 12/38/2
f 30/39/6 28/54/6 27/40/6
f 26/42/6 31/60/6 32/43/6
f 38/45/5 25/68/5 32/46/5
f 35/48/3 30/39/3 29/41/3
f 36/50/1 28/69/1 30/51/1
f 34/53/2 27/40/2 28/54/2
f 40/56/1 31/70/1 26/57/1
f 39/59/2 32/43/2 31/60/2
f 3/6/7 34/53/7 36/55/7
f 4/1/8 36/50/8 35/52/8
f 10/36/3 11/67/3 35/48/3
f 3/20/9 10/19/9 33/31/9
f 22/62/2 39/59/2 40/61/2
f 2/63/8 12/14/8 40/56/8
f 1/17/9 38/45/9 39/47/9
f 1/8/10 2/64/10 37/10/10
