# Blender v2.80 (sub 75) OBJ File: 'bot.blend'
# www.blender.org
mtllib shield.mtl
o shield
v 1.015863 0.171080 -0.549917
v 0.899138 0.293370 0.638899
v 0.190836 -0.627224 -0.549917
v 0.190836 -0.081195 0.638899
v 0.960125 0.229476 -0.549917
v 0.818744 0.377598 0.638899
v 0.190836 0.035242 0.638899
v 0.190836 -0.927363 -0.549917
v 0.725892 -0.458538 -0.549917
v 0.901226 -0.613644 -0.549917
v 0.634530 -0.274841 -0.549917
v 0.689576 -0.171532 -0.549917
v 0.576591 0.087835 0.638899
v 0.471067 0.036741 0.638899
v 0.524344 0.191906 0.638899
v 0.421828 0.142268 0.638899
v 0.834538 -0.217255 -0.549917
v 0.769650 -0.079482 -0.549917
v 0.675045 0.135506 0.638899
v 0.623169 0.239756 0.638899
v 1.118365 0.175457 -0.549917
v 0.954961 0.346652 0.638899
v 0.997591 0.301990 -0.549917
v 0.874566 0.430880 0.638899
v 1.083364 0.342082 -0.549917
v 1.019868 0.408605 0.638899
v 1.062498 0.363943 -0.549917
v 0.939473 0.492833 0.638899
v 0.996196 0.191685 -0.349610
v 0.190836 -0.784790 -0.349610
v 0.190836 -0.515603 -0.349610
v 0.936303 0.254433 -0.349610
v 0.682956 -0.375087 -0.349610
v 0.846527 -0.495450 -0.349610
v 0.661735 -0.110295 -0.349610
v 0.598692 -0.204562 -0.349610
v 0.744969 -0.025693 -0.349610
v 0.807665 -0.157818 -0.349610
v 1.090833 0.204302 -0.349610
v 0.976862 0.323707 -0.349610
v 1.072666 0.353290 -0.349610
v 1.041769 0.385660 -0.349610
v 0.974415 0.214504 -0.301470
v 0.796879 -0.391656 -0.301470
v 0.590079 -0.187671 -0.301470
v 1.062596 0.233886 -0.301470
v 1.058247 0.368396 -0.301470
v 0.190836 -0.659592 -0.301470
v 0.190836 -0.488777 -0.301470
v 0.930578 0.260431 -0.301470
v 0.645343 -0.298661 -0.301470
v 0.655045 -0.095578 -0.301470
v 0.739038 -0.012766 -0.301470
v 0.781151 -0.102113 -0.301470
v 0.971880 0.328926 -0.301470
v 1.036787 0.390879 -0.301470
v 0.919757 0.271769 0.562099
v 0.588819 0.060577 0.562099
v 0.435569 0.115322 0.562099
v 0.975579 0.325051 0.562099
v 1.040486 0.387004 0.562099
v 0.190836 -0.111058 0.562099
v 0.190836 -0.007555 0.562099
v 0.827877 0.368029 0.562099
v 0.484866 0.010245 0.562099
v 0.535018 0.168427 0.562099
v 0.632632 0.219133 0.562099
v 0.687467 0.108342 0.562099
v 0.882514 0.422553 0.562099
v 0.947421 0.484507 0.562099
v -1.015863 0.171079 -0.549917
v -0.899139 0.293370 0.638899
v -0.190836 -0.627224 -0.549917
v -0.190836 -0.081196 0.638899
v -0.960125 0.229475 -0.549917
v -0.818744 0.377597 0.638899
v -0.190836 0.035241 0.638899
v -0.190836 -0.927363 -0.549917
v 0.000000 -1.334712 -0.549917
v -0.000000 -0.081195 0.638899
v 0.000000 -0.735169 -0.549917
v -0.000000 0.035241 0.638899
v -0.725892 -0.458538 -0.549917
v -0.901225 -0.613645 -0.549917
v -0.634530 -0.274842 -0.549917
v -0.689576 -0.171532 -0.549917
v -0.576591 0.087835 0.638899
v -0.471067 0.036741 0.638899
v -0.524344 0.191905 0.638899
v -0.421829 0.142268 0.638899
v -0.834538 -0.217256 -0.549917
v -0.769650 -0.079483 -0.549917
v -0.675045 0.135505 0.638899
v -0.623169 0.239756 0.638899
v -1.118365 0.175456 -0.549917
v -0.954961 0.346652 0.638899
v -0.997591 0.301989 -0.549917
v -0.874566 0.430879 0.638899
v -1.083364 0.342081 -0.549917
v -1.019868 0.408605 0.638899
v -1.062498 0.363942 -0.549917
v -0.939474 0.492832 0.638899
v -0.996196 0.191684 -0.349610
v -0.190836 -0.784790 -0.349610
v -0.190836 -0.515603 -0.349610
v -0.936303 0.254433 -0.349610
v 0.000000 -0.605361 -0.349610
v 0.000000 -1.123504 -0.349610
v -0.682956 -0.375088 -0.349610
v -0.846527 -0.495451 -0.349610
v -0.661735 -0.110296 -0.349610
v -0.598692 -0.204562 -0.349610
v -0.744969 -0.025694 -0.349610
v -0.807665 -0.157818 -0.349610
v -1.090833 0.204301 -0.349610
v -0.976862 0.323706 -0.349610
v -1.072666 0.353290 -0.349610
v -1.041769 0.385659 -0.349610
v -0.974416 0.214503 -0.301470
v -0.796879 -0.391656 -0.301470
v -0.590078 -0.187671 -0.301470
v -1.062596 0.233885 -0.301470
v -1.058247 0.368396 -0.301470
v -0.190836 -0.659592 -0.301470
v -0.190836 -0.488777 -0.301470
v -0.930578 0.260431 -0.301470
v 0.000000 -0.574164 -0.301470
v 0.000000 -0.941964 -0.301470
v -0.645342 -0.298661 -0.301470
v -0.655044 -0.095579 -0.301470
v -0.739038 -0.012766 -0.301470
v -0.781151 -0.102114 -0.301470
v -0.971880 0.328925 -0.301470
v -1.036788 0.390879 -0.301470
v -0.919757 0.271768 0.562099
v -0.588819 0.060577 0.562099
v -0.435569 0.115322 0.562099
v -0.975579 0.325050 0.562099
v -1.040486 0.387003 0.562099
v -0.190836 -0.111058 0.562099
v -0.190836 -0.007555 0.562099
v -0.827877 0.368028 0.562099
v -0.000000 -0.014529 0.562099
v 0.000000 -0.181582 0.562099
v -0.484866 0.010244 0.562099
v -0.535018 0.168426 0.562099
v -0.632632 0.219132 0.562099
v -0.687467 0.108342 0.562099
v -0.882514 0.422553 0.562099
v -0.947421 0.484506 0.562099
vt 0.625000 0.625000
vt 0.608850 0.648855
vt 0.608850 0.625000
vt 0.375000 0.648855
vt 0.125000 0.692076
vt 0.125000 0.648854
vt 0.625000 0.648854
vt 0.875000 0.690386
vt 0.625000 0.690595
vt 0.125000 0.750000
vt 0.375000 0.750000
vt 0.125000 0.750000
vt 0.608850 0.031367
vt 0.625000 0.041532
vt 0.608850 0.041641
vt 0.875000 0.625000
vt 0.375000 0.625000
vt 0.125000 0.625000
vt 0.608850 0.690673
vt 0.608850 0.101145
vt 0.625000 0.125000
vt 0.608850 0.125000
vt 0.625000 0.718558
vt 0.875000 0.750000
vt 0.625000 0.750000
vt 0.608850 0.059504
vt 0.625000 0.101145
vt 0.608850 0.750000
vt 0.608850 0.718499
vt 0.375000 0.057924
vt 0.417123 0.042937
vt 0.417123 0.058209
vt 0.625000 0.708259
vt 0.875000 0.708468
vt 0.375000 0.707051
vt 0.375000 0.691804
vt 0.417123 0.691600
vt 0.417123 0.707254
vt 0.375000 0.717648
vt 0.125000 0.717443
vt 0.125000 0.706779
vt 0.608849 0.708181
vt 0.608850 0.000000
vt 0.625000 0.031285
vt 0.875000 0.750000
vt 0.625000 0.750000
vt 0.625000 0.750000
vt 0.375000 0.000000
vt 0.417123 0.000000
vt 0.417123 0.000000
vt 0.608850 0.750000
vt 0.608850 0.750000
vt 0.625000 1.000000
vt 0.608850 1.000000
vt 0.125000 0.750000
vt 0.375000 0.000000
vt 0.417123 0.000000
vt 0.427247 0.000000
vt 0.427247 0.000000
vt 0.417123 0.750000
vt 0.375000 0.750000
vt 0.417123 1.000000
vt 0.375000 1.000000
vt 0.417123 0.750000
vt 0.375000 0.750000
vt 0.427247 0.000000
vt 0.417123 0.032343
vt 0.375000 0.032557
vt 0.427247 0.691551
vt 0.427247 0.707303
vt 0.427247 0.042868
vt 0.427247 0.058277
vt 0.417123 0.717801
vt 0.417123 0.101145
vt 0.375000 0.101145
vt 0.417123 0.125000
vt 0.375000 0.125000
vt 0.417123 0.648854
vt 0.375000 0.043221
vt 0.417123 0.625000
vt 0.608850 0.000000
vt 0.608850 0.000000
vt 0.427247 0.750000
vt 0.417123 0.750000
vt 0.427247 1.000000
vt 0.427247 0.750000
vt 0.427247 0.032291
vt 0.427247 0.717838
vt 0.427247 0.101145
vt 0.427247 0.125000
vt 0.427247 0.648854
vt 0.427247 0.625000
vt 0.625000 0.000000
vt 0.625000 0.000000
vt 0.625000 0.000000
vt 0.625000 0.059614
vt 0.427247 0.750000
vt 0.608850 0.648855
vt 0.125000 0.692076
vt 0.375000 0.648855
vt 0.125000 0.648854
vt 0.625000 0.648854
vt 0.875000 0.690386
vt 0.875000 0.648854
vt 0.125000 0.750000
vt 0.375000 0.750000
vt 0.375000 0.750000
vt 0.608850 0.031367
vt 0.625000 0.041532
vt 0.625000 0.031285
vt 0.608850 0.690673
vt 0.608850 0.101145
vt 0.625000 0.101145
vt 0.625000 0.718558
vt 0.875000 0.750000
vt 0.875000 0.718715
vt 0.608850 0.059504
vt 0.625000 0.059614
vt 0.608850 0.750000
vt 0.608850 0.718499
vt 0.417123 0.042937
vt 0.375000 0.057924
vt 0.417123 0.058209
vt 0.625000 0.708259
vt 0.875000 0.708468
vt 0.375000 0.707051
vt 0.125000 0.706779
vt 0.417123 0.691600
vt 0.417123 0.707254
vt 0.375000 0.717648
vt 0.125000 0.717443
vt 0.608849 0.708181
vt 0.608850 0.000000
vt 0.625000 0.000000
vt 0.625000 0.750000
vt 0.875000 0.750000
vt 0.625000 0.750000
vt 0.417123 0.000000
vt 0.375000 0.000000
vt 0.417123 0.000000
vt 0.625000 0.750000
vt 0.608850 0.750000
vt 0.608850 0.750000
vt 0.625000 1.000000
vt 0.125000 0.750000
vt 0.125000 0.750000
vt 0.375000 0.000000
vt 0.375000 0.000000
vt 0.427247 0.000000
vt 0.417123 0.000000
vt 0.417123 0.750000
vt 0.417123 0.750000
vt 0.375000 0.750000
vt 0.417123 1.000000
vt 0.417123 0.750000
vt 0.427247 0.000000
vt 0.417123 0.032343
vt 0.427247 0.691551
vt 0.427247 0.707303
vt 0.427247 0.042868
vt 0.427247 0.058277
vt 0.417123 0.717801
vt 0.417123 0.101145
vt 0.375000 0.101145
vt 0.375000 0.691804
vt 0.417123 0.648854
vt 0.375000 0.032557
vt 0.608850 0.041641
vt 0.608850 0.000000
vt 0.427247 0.000000
vt 0.427247 0.750000
vt 0.427247 0.750000
vt 0.427247 1.000000
vt 0.427247 0.750000
vt 0.427247 0.032291
vt 0.427247 0.717838
vt 0.427247 0.101145
vt 0.427247 0.648854
vt 0.625000 0.000000
vt 0.625000 0.000000
vt 0.625000 0.690595
vt 0.608850 1.000000
vt 0.875000 0.648854
vt 0.875000 0.718715
vt 0.875000 0.750000
vt 0.375000 0.000000
vt 0.375000 0.043221
vt 0.875000 0.750000
vt 0.375000 1.000000
vt 0.608850 0.000000
vn -0.0307 0.8388 -0.5436
vn 0.0000 0.0000 -1.0000
vn 0.0000 0.0000 1.0000
vn 0.4062 -0.8389 0.3624
vn -0.4017 0.8000 -0.4458
vn 0.2191 -0.5929 0.7749
vn 0.3589 -0.8699 0.3383
vn -0.5827 0.7641 -0.2770
vn -0.5802 -0.7885 0.2041
vn -0.7993 0.5346 -0.2745
vn -0.4370 0.8414 -0.3180
vn 0.5375 -0.7639 0.3571
vn 0.1313 -0.9847 0.1142
vn -0.6961 0.6976 -0.1697
vn 0.7234 0.6905 -0.0000
vn -0.6828 0.7154 -0.1482
vn 0.9916 0.1209 0.0462
vn 0.9601 0.0310 0.2778
vn -0.8769 0.4531 -0.1607
vn 0.1873 -0.8521 0.4887
vn 0.8796 -0.4107 0.2399
vn -0.7216 0.6277 -0.2922
vn -0.7848 0.5537 -0.2783
vn -0.3803 -0.6196 0.6866
vn -0.8266 0.5096 -0.2387
vn 0.5810 -0.6631 0.4720
vn 0.8266 -0.3873 0.4083
vn -0.5700 0.7177 -0.3999
vn 0.9720 0.1635 0.1689
vn -0.4288 0.7581 -0.4913
vn 0.4042 -0.8348 0.3737
vn -0.4466 0.8364 -0.3178
vn 0.6876 -0.7204 0.0913
vn 0.6901 -0.7231 0.0298
vn -0.8514 0.4985 -0.1634
vn 0.6118 -0.3300 0.7189
vn -0.6802 0.6692 -0.2991
vn -0.8005 0.5468 -0.2455
vn 0.2863 -0.3439 0.8943
vn 0.4141 -0.2333 0.8798
vn -0.5544 0.7270 -0.4051
vn 0.7841 0.0902 0.6141
vn -0.3671 0.7806 -0.5059
vn 0.6435 -0.6742 0.3624
vn -0.4131 0.8532 -0.3183
vn -0.8448 0.5094 -0.1639
vn 0.8337 -0.5089 0.2145
vn -0.6696 0.6791 -0.3007
vn -0.7934 0.5563 -0.2471
vn 0.5568 -0.7012 0.4454
vn 0.7431 -0.5022 0.4422
vn -0.5502 0.7295 -0.4065
vn 0.9768 0.0531 0.2076
vn -0.3515 0.7856 -0.5091
vn 0.0307 0.8388 -0.5436
vn -0.4062 -0.8389 0.3624
vn 0.4017 0.8000 -0.4458
vn 0.0000 -0.9320 0.3624
vn -0.3617 -0.8594 0.3615
vn 0.5827 0.7641 -0.2770
vn 0.5802 -0.7885 0.2041
vn 0.7993 0.5346 -0.2745
vn 0.4370 0.8414 -0.3180
vn -0.5375 -0.7630 0.3589
vn -0.1313 -0.9847 0.1142
vn 0.6961 0.6976 -0.1697
vn -0.7234 0.6905 0.0000
vn 0.6828 0.7154 -0.1482
vn -0.9733 0.2044 0.1043
vn -0.8851 0.1079 0.4528
vn 0.8769 0.4531 -0.1607
vn -0.1873 -0.8521 0.4887
vn -0.8722 -0.4705 0.1340
vn 0.7216 0.6277 -0.2922
vn 0.7848 0.5537 -0.2783
vn 0.3803 -0.6196 0.6866
vn 0.8266 0.5096 -0.2387
vn -0.5819 -0.6989 0.4159
vn -0.8225 -0.4634 0.3298
vn 0.5700 0.7177 -0.3999
vn -0.9886 0.1138 0.0989
vn 0.4288 0.7581 -0.4913
vn -0.4042 -0.8348 0.3737
vn 0.4466 0.8364 -0.3178
vn -0.6876 -0.7204 0.0913
vn -0.9948 0.0322 0.0968
vn 0.8514 0.4985 -0.1634
vn -0.7212 -0.4402 0.5349
vn 0.6802 0.6692 -0.2991
vn 0.8005 0.5468 -0.2455
vn -0.3113 -0.3920 0.8657
vn -0.4690 -0.3170 0.8244
vn 0.5544 0.7270 -0.4051
vn -0.8977 0.0488 0.4380
vn 0.3671 0.7806 -0.5059
vn -0.6435 -0.6742 0.3624
vn 0.4131 0.8532 -0.3183
vn 0.8448 0.5094 -0.1639
vn -0.5731 -0.8145 0.0903
vn 0.6696 0.6791 -0.3007
vn 0.7934 0.5563 -0.2471
vn -0.3539 -0.8578 0.3726
vn -0.2978 -0.8058 0.5118
vn 0.5501 0.7295 -0.4065
vn -0.4211 -0.8697 0.2576
vn 0.3515 0.7856 -0.5091
vn -0.0000 0.8735 -0.4868
vn -0.3912 0.8443 -0.3662
vn 0.3617 -0.8594 0.3615
vn -0.5679 0.8058 -0.1679
vn -0.6411 -0.7247 0.2526
vn -0.8398 0.4475 -0.3073
vn -0.4179 0.8632 -0.2833
vn 0.5375 -0.7630 0.3589
vn 0.0422 -0.9881 0.1481
vn 0.9733 0.2045 0.1043
vn 0.8851 0.1079 0.4528
vn -0.8541 0.5001 -0.1426
vn 0.1089 -0.8171 0.5661
vn 0.8722 -0.4705 0.1340
vn -0.6871 0.6760 -0.2662
vn -0.7861 0.5257 -0.3251
vn -0.3937 -0.5350 0.7475
vn -0.8143 0.5562 -0.1661
vn 0.5819 -0.6989 0.4159
vn 0.8225 -0.4634 0.3298
vn -0.5654 0.7414 -0.3613
vn 0.9886 0.1138 0.0989
vn -0.3800 0.8080 -0.4503
vn -0.4981 -0.8117 0.3050
vn -0.7716 0.5443 -0.3290
vn 0.2130 -0.9692 0.1238
vn 0.9948 0.0322 0.0968
vn -0.8475 0.5111 -0.1431
vn 0.7212 -0.4402 0.5349
vn -0.6765 0.6861 -0.2676
vn -0.8074 0.5661 -0.1665
vn 0.3113 -0.3920 0.8657
vn 0.4690 -0.3170 0.8244
vn -0.5614 0.7444 -0.3616
vn 0.8977 0.0488 0.4380
vn -0.3640 0.8136 -0.4534
vn -0.4383 0.8208 -0.3664
vn -0.6986 0.7000 -0.1482
vn 0.5731 -0.8145 0.0903
vn -0.4421 0.8511 -0.2830
vn -0.5977 0.7838 -0.1687
vn 0.3539 -0.8578 0.3726
vn 0.2978 -0.8058 0.5118
vn -0.4175 0.8315 -0.3664
vn 0.4211 -0.8697 0.2576
vn -0.0319 0.8731 -0.4865
vn 0.3912 0.8443 -0.3662
vn -0.2191 -0.5929 0.7749
vn -0.3589 -0.8699 0.3383
vn 0.5679 0.8058 -0.1679
vn 0.6411 -0.7247 0.2526
vn 0.8398 0.4475 -0.3073
vn 0.4179 0.8632 -0.2833
vn -0.5375 -0.7639 0.3571
vn -0.0422 -0.9881 0.1481
vn -0.9916 0.1209 0.0462
vn -0.9601 0.0310 0.2778
vn 0.8541 0.5001 -0.1426
vn -0.1089 -0.8171 0.5661
vn -0.8796 -0.4107 0.2399
vn 0.6871 0.6760 -0.2662
vn 0.7861 0.5257 -0.3251
vn 0.3937 -0.5350 0.7475
vn 0.8143 0.5562 -0.1661
vn -0.5810 -0.6631 0.4720
vn -0.8266 -0.3873 0.4083
vn 0.5654 0.7414 -0.3613
vn -0.9720 0.1635 0.1689
vn 0.3800 0.8080 -0.4503
vn 0.4981 -0.8117 0.3050
vn 0.7716 0.5443 -0.3290
vn -0.2130 -0.9692 0.1238
vn -0.6901 -0.7231 0.0298
vn 0.8475 0.5111 -0.1431
vn -0.6118 -0.3300 0.7189
vn 0.6765 0.6861 -0.2676
vn 0.8074 0.5661 -0.1665
vn -0.2863 -0.3439 0.8943
vn -0.4141 -0.2333 0.8798
vn 0.5614 0.7444 -0.3616
vn -0.7841 0.0902 0.6141
vn 0.3640 0.8136 -0.4534
vn 0.4383 0.8208 -0.3664
vn 0.6986 0.7000 -0.1482
vn -0.8337 -0.5089 0.2145
vn 0.4421 0.8511 -0.2830
vn 0.5977 0.7838 -0.1687
vn -0.5568 -0.7012 0.4454
vn -0.7431 -0.5022 0.4422
vn 0.4175 0.8315 -0.3664
vn -0.9768 0.0531 0.2076
vn 0.0319 0.8731 -0.4865
usemtl grey
s off
f 82/1/1 63/2/1 143/3/1
f 3/4/2 9/5/2 8/6/2
f 7/7/3 14/8/3 16/9/3
f 1/10/2 23/11/2 21/12/2
f 68/13/4 13/14/4 58/15/4
f 80/16/3 7/7/3 82/1/3
f 81/17/2 8/6/2 79/18/2
f 7/7/5 59/19/5 63/2/5
f 62/20/6 80/21/6 144/22/6
f 20/23/3 2/24/3 6/25/3
f 65/26/7 4/27/7 62/20/7
f 20/23/8 64/28/8 67/29/8
f 9/30/9 34/31/9 33/32/9
f 15/33/3 14/8/3 13/34/3
f 12/35/2 9/5/2 11/36/2
f 12/35/10 36/37/10 35/38/10
f 18/39/2 1/10/2 17/40/2
f 12/35/2 17/40/2 10/41/2
f 15/33/11 67/29/11 66/42/11
f 13/34/3 20/23/3 15/33/3
f 57/43/12 19/44/12 68/13/12
f 22/45/3 28/46/3 24/47/3
f 1/48/13 39/49/13 29/50/13
f 2/24/3 24/47/3 6/25/3
f 6/25/14 69/51/14 64/28/14
f 70/52/15 26/53/15 61/54/15
f 24/47/16 70/52/16 69/51/16
f 23/11/2 25/55/2 21/12/2
f 39/49/17 25/56/17 41/57/17
f 46/58/18 41/57/18 47/59/18
f 40/60/16 27/61/16 23/11/16
f 27/61/15 41/62/15 25/63/15
f 32/64/19 23/11/19 5/65/19
f 29/50/20 46/58/20 43/66/20
f 1/48/21 38/67/21 17/68/21
f 35/38/22 18/39/22 12/35/22
f 35/38/23 45/69/23 52/70/23
f 33/32/24 44/71/24 51/72/24
f 37/73/25 5/65/25 18/39/25
f 9/30/26 30/74/26 8/75/26
f 8/75/27 108/76/27 79/77/27
f 31/78/28 11/36/28 3/4/28
f 17/68/29 34/31/29 10/79/29
f 107/80/30 3/4/30 81/17/30
f 51/72/31 58/15/31 65/26/31
f 52/70/32 59/19/32 66/42/32
f 43/66/33 60/81/33 57/43/33
f 60/81/34 47/59/34 61/82/34
f 55/83/16 42/84/16 40/60/16
f 42/84/15 47/85/15 41/62/15
f 50/86/35 40/60/35 32/64/35
f 29/50/36 54/87/36 38/67/36
f 52/70/37 37/73/37 35/38/37
f 53/88/38 32/64/38 37/73/38
f 33/32/39 48/89/39 30/74/39
f 30/74/40 128/90/40 108/76/40
f 49/91/41 36/37/41 31/78/41
f 38/67/42 44/71/42 34/31/42
f 127/92/43 31/78/43 107/80/43
f 60/81/44 26/93/44 22/94/44
f 2/95/44 60/81/44 22/94/44
f 66/42/45 16/9/45 15/33/45
f 14/96/4 58/15/4 13/14/4
f 55/83/16 70/52/16 56/97/16
f 56/97/15 61/54/15 47/85/15
f 64/28/46 55/83/46 50/86/46
f 43/66/47 68/13/47 54/87/47
f 66/42/48 53/88/48 52/70/48
f 67/29/49 50/86/49 53/88/49
f 51/72/50 62/20/50 48/89/50
f 48/89/51 144/22/51 128/90/51
f 63/2/52 45/69/52 49/91/52
f 54/87/53 58/15/53 44/71/53
f 143/3/54 49/91/54 127/92/54
f 141/98/55 82/1/55 143/3/55
f 83/99/2 73/100/2 78/101/2
f 77/102/3 88/103/3 74/104/3
f 71/105/2 97/106/2 75/107/2
f 148/108/56 87/109/56 93/110/56
f 77/102/3 80/16/3 82/1/3
f 78/101/2 81/17/2 79/18/2
f 137/111/57 77/102/57 141/98/57
f 140/112/58 80/21/58 74/113/58
f 94/114/3 72/115/3 93/116/3
f 145/117/59 74/113/59 88/118/59
f 142/119/60 94/114/60 147/120/60
f 110/121/61 83/122/61 109/123/61
f 88/103/3 89/124/3 87/125/3
f 86/126/2 83/99/2 84/127/2
f 112/128/62 86/126/62 111/129/62
f 71/105/2 92/130/2 91/131/2
f 91/131/2 86/126/2 84/127/2
f 147/120/63 89/124/63 146/132/63
f 94/114/3 87/125/3 89/124/3
f 135/133/64 93/110/64 72/134/64
f 102/135/3 96/136/3 98/137/3
f 115/138/65 71/139/65 103/140/65
f 98/137/3 72/115/3 76/141/3
f 149/142/66 76/141/66 142/119/66
f 150/143/67 100/144/67 102/135/67
f 150/143/68 98/137/68 149/142/68
f 99/145/2 97/106/2 95/146/2
f 115/138/69 99/147/69 95/148/69
f 122/149/70 117/150/70 115/138/70
f 97/106/68 118/151/68 116/152/68
f 101/153/67 117/154/67 118/151/67
f 97/106/71 106/155/71 75/107/71
f 122/149/72 103/140/72 119/156/72
f 71/139/73 114/157/73 103/140/73
f 92/130/74 111/129/74 86/126/74
f 121/158/75 111/129/75 130/159/75
f 120/160/76 109/123/76 129/161/76
f 75/107/77 113/162/77 92/130/77
f 83/122/78 104/163/78 109/123/78
f 78/164/79 108/76/79 104/163/79
f 85/165/80 105/166/80 73/100/80
f 91/167/81 110/121/81 114/157/81
f 73/100/82 107/80/82 81/17/82
f 136/168/83 129/161/83 145/117/83
f 137/111/84 130/159/84 146/132/84
f 138/169/85 119/156/85 135/133/85
f 138/169/86 123/170/86 122/149/86
f 116/152/68 134/171/68 133/172/68
f 118/151/67 123/173/67 134/171/67
f 116/152/87 126/174/87 106/155/87
f 103/140/88 132/175/88 119/156/88
f 113/162/89 130/159/89 111/129/89
f 106/155/90 131/176/90 113/162/90
f 109/123/91 124/177/91 129/161/91
f 104/163/92 128/90/92 124/177/92
f 112/128/93 125/178/93 105/166/93
f 114/157/94 120/160/94 132/175/94
f 105/166/95 127/92/95 107/80/95
f 100/179/96 138/169/96 96/180/96
f 72/134/96 138/169/96 135/133/96
f 90/181/97 146/132/97 89/124/97
f 87/109/56 145/117/56 88/118/56
f 134/171/68 149/142/68 133/172/68
f 134/171/67 139/182/67 150/143/67
f 133/172/98 142/119/98 126/174/98
f 119/156/99 148/108/99 135/133/99
f 131/176/100 146/132/100 130/159/100
f 126/174/101 147/120/101 131/176/101
f 129/161/102 140/112/102 145/117/102
f 124/177/103 144/22/103 140/112/103
f 121/158/104 141/98/104 125/178/104
f 132/175/105 136/168/105 148/108/105
f 125/178/106 143/3/106 127/92/106
f 82/1/107 7/7/107 63/2/107
f 3/4/2 11/36/2 9/5/2
f 7/7/3 4/183/3 14/8/3
f 1/10/2 5/65/2 23/11/2
f 68/13/4 19/44/4 13/14/4
f 80/16/3 4/183/3 7/7/3
f 81/17/2 3/4/2 8/6/2
f 7/7/108 16/9/108 59/19/108
f 62/20/58 4/27/58 80/21/58
f 20/23/3 19/184/3 2/24/3
f 65/26/109 14/96/109 4/27/109
f 20/23/110 6/25/110 64/28/110
f 9/30/111 10/79/111 34/31/111
f 15/33/3 16/9/3 14/8/3
f 12/35/2 10/41/2 9/5/2
f 12/35/112 11/36/112 36/37/112
f 18/39/2 5/65/2 1/10/2
f 12/35/2 18/39/2 17/40/2
f 15/33/113 20/23/113 67/29/113
f 13/34/3 19/184/3 20/23/3
f 57/43/114 2/95/114 19/44/114
f 22/45/3 26/185/3 28/46/3
f 1/48/115 21/186/115 39/49/115
f 2/24/3 22/45/3 24/47/3
f 6/25/16 24/47/16 69/51/16
f 70/52/15 28/46/15 26/53/15
f 24/47/16 28/46/16 70/52/16
f 23/11/2 27/61/2 25/55/2
f 39/49/116 21/186/116 25/56/116
f 46/58/117 39/49/117 41/57/117
f 40/60/16 42/84/16 27/61/16
f 27/61/15 42/84/15 41/62/15
f 32/64/118 40/60/118 23/11/118
f 29/50/119 39/49/119 46/58/119
f 1/48/120 29/50/120 38/67/120
f 35/38/121 37/73/121 18/39/121
f 35/38/122 36/37/122 45/69/122
f 33/32/123 34/31/123 44/71/123
f 37/73/124 32/64/124 5/65/124
f 9/30/125 33/32/125 30/74/125
f 8/75/126 30/74/126 108/76/126
f 31/78/127 36/37/127 11/36/127
f 17/68/128 38/67/128 34/31/128
f 107/80/129 31/78/129 3/4/129
f 51/72/130 44/71/130 58/15/130
f 52/70/131 45/69/131 59/19/131
f 43/66/132 46/58/132 60/81/132
f 60/81/133 46/58/133 47/59/133
f 55/83/16 56/97/16 42/84/16
f 42/84/15 56/97/15 47/85/15
f 50/86/134 55/83/134 40/60/134
f 29/50/135 43/66/135 54/87/135
f 52/70/136 53/88/136 37/73/136
f 53/88/137 50/86/137 32/64/137
f 33/32/138 51/72/138 48/89/138
f 30/74/139 48/89/139 128/90/139
f 49/91/140 45/69/140 36/37/140
f 38/67/141 54/87/141 44/71/141
f 127/92/142 49/91/142 31/78/142
f 60/81/44 61/82/44 26/93/44
f 2/95/44 57/43/44 60/81/44
f 66/42/143 59/19/143 16/9/143
f 14/96/4 65/26/4 58/15/4
f 55/83/16 69/51/16 70/52/16
f 56/97/15 70/52/15 61/54/15
f 64/28/144 69/51/144 55/83/144
f 43/66/145 57/43/145 68/13/145
f 66/42/146 67/29/146 53/88/146
f 67/29/147 64/28/147 50/86/147
f 51/72/148 65/26/148 62/20/148
f 48/89/149 62/20/149 144/22/149
f 63/2/150 59/19/150 45/69/150
f 54/87/151 68/13/151 58/15/151
f 143/3/152 63/2/152 49/91/152
f 141/98/107 77/102/107 82/1/107
f 83/99/2 85/165/2 73/100/2
f 77/102/3 90/181/3 88/103/3
f 71/105/2 95/146/2 97/106/2
f 148/108/56 136/168/56 87/109/56
f 77/102/3 74/104/3 80/16/3
f 78/101/2 73/100/2 81/17/2
f 137/111/153 90/181/153 77/102/153
f 140/112/154 144/22/154 80/21/154
f 94/114/3 76/141/3 72/115/3
f 145/117/155 140/112/155 74/113/155
f 142/119/156 76/141/156 94/114/156
f 110/121/157 84/187/157 83/122/157
f 88/103/3 90/181/3 89/124/3
f 86/126/2 85/165/2 83/99/2
f 112/128/158 85/165/158 86/126/158
f 71/105/2 75/107/2 92/130/2
f 91/131/2 92/130/2 86/126/2
f 147/120/159 94/114/159 89/124/159
f 94/114/3 93/116/3 87/125/3
f 135/133/160 148/108/160 93/110/160
f 102/135/3 100/188/3 96/136/3
f 115/138/161 95/148/161 71/139/161
f 98/137/3 96/136/3 72/115/3
f 149/142/68 98/137/68 76/141/68
f 150/143/67 139/182/67 100/144/67
f 150/143/68 102/135/68 98/137/68
f 99/145/2 101/153/2 97/106/2
f 115/138/162 117/150/162 99/147/162
f 122/149/163 123/170/163 117/150/163
f 97/106/68 101/153/68 118/151/68
f 101/153/67 99/189/67 117/154/67
f 97/106/164 116/152/164 106/155/164
f 122/149/165 115/138/165 103/140/165
f 71/139/166 91/167/166 114/157/166
f 92/130/167 113/162/167 111/129/167
f 121/158/168 112/128/168 111/129/168
f 120/160/169 110/121/169 109/123/169
f 75/107/170 106/155/170 113/162/170
f 83/122/171 78/164/171 104/163/171
f 78/164/172 79/77/172 108/76/172
f 85/165/173 112/128/173 105/166/173
f 91/167/174 84/187/174 110/121/174
f 73/100/175 105/166/175 107/80/175
f 136/168/176 120/160/176 129/161/176
f 137/111/177 121/158/177 130/159/177
f 138/169/178 122/149/178 119/156/178
f 138/169/179 139/190/179 123/170/179
f 116/152/68 118/151/68 134/171/68
f 118/151/67 117/154/67 123/173/67
f 116/152/180 133/172/180 126/174/180
f 103/140/181 114/157/181 132/175/181
f 113/162/182 131/176/182 130/159/182
f 106/155/183 126/174/183 131/176/183
f 109/123/184 104/163/184 124/177/184
f 104/163/185 108/76/185 128/90/185
f 112/128/186 121/158/186 125/178/186
f 114/157/187 110/121/187 120/160/187
f 105/166/188 125/178/188 127/92/188
f 100/179/96 139/190/96 138/169/96
f 72/134/96 96/180/96 138/169/96
f 90/181/189 137/111/189 146/132/189
f 87/109/56 136/168/56 145/117/56
f 134/171/68 150/143/68 149/142/68
f 134/171/67 123/173/67 139/182/67
f 133/172/190 149/142/190 142/119/190
f 119/156/191 132/175/191 148/108/191
f 131/176/192 147/120/192 146/132/192
f 126/174/193 142/119/193 147/120/193
f 129/161/194 124/177/194 140/112/194
f 124/177/195 128/90/195 144/22/195
f 121/158/196 137/111/196 141/98/196
f 132/175/197 120/160/197 136/168/197
f 125/178/198 141/98/198 143/3/198
