# Blender v2.80 (sub 75) OBJ File: 'bot.blend'
# www.blender.org
mtllib shield.mtl
o shield
v -0.171080 -0.549917 -1.015863
v -0.293370 0.638899 -0.899138
v 0.627224 -0.549917 -0.190836
v 0.081195 0.638899 -0.190836
v -0.229476 -0.549917 -0.960125
v -0.377598 0.638899 -0.818744
v -0.035242 0.638899 -0.190836
v 0.927363 -0.549917 -0.190836
v 0.458538 -0.549917 -0.725892
v 0.613644 -0.549917 -0.901226
v 0.274841 -0.549917 -0.634530
v 0.171532 -0.549917 -0.689576
v -0.087835 0.638899 -0.576591
v -0.036741 0.638899 -0.471067
v -0.191906 0.638899 -0.524344
v -0.142268 0.638899 -0.421828
v 0.217255 -0.549917 -0.834538
v 0.079482 -0.549917 -0.769650
v -0.135506 0.638899 -0.675045
v -0.239756 0.638899 -0.623169
v -0.175457 -0.549917 -1.118365
v -0.346652 0.638899 -0.954961
v -0.301990 -0.549917 -0.997591
v -0.430880 0.638899 -0.874566
v -0.342082 -0.549917 -1.083364
v -0.408605 0.638899 -1.019868
v -0.363943 -0.549917 -1.062498
v -0.492833 0.638899 -0.939473
v -0.191685 -0.349610 -0.996196
v 0.784790 -0.349610 -0.190836
v 0.515603 -0.349610 -0.190836
v -0.254433 -0.349610 -0.936303
v 0.375087 -0.349610 -0.682956
v 0.495450 -0.349610 -0.846527
v 0.110295 -0.349610 -0.661735
v 0.204562 -0.349610 -0.598692
v 0.025693 -0.349610 -0.744969
v 0.157818 -0.349610 -0.807665
v -0.204302 -0.349610 -1.090833
v -0.323707 -0.349610 -0.976862
v -0.353290 -0.349610 -1.072666
v -0.385660 -0.349610 -1.041769
v -0.214504 -0.301470 -0.974415
v 0.391656 -0.301470 -0.796879
v 0.187671 -0.301470 -0.590079
v -0.233886 -0.301470 -1.062596
v -0.368396 -0.301470 -1.058247
v 0.659592 -0.301470 -0.190836
v 0.488777 -0.301470 -0.190836
v -0.260431 -0.301470 -0.930578
v 0.298661 -0.301470 -0.645343
v 0.095578 -0.301470 -0.655045
v 0.012766 -0.301470 -0.739038
v 0.102113 -0.301470 -0.781151
v -0.328926 -0.301470 -0.971880
v -0.390879 -0.301470 -1.036787
v -0.271769 0.562099 -0.919757
v -0.060577 0.562099 -0.588819
v -0.115322 0.562099 -0.435569
v -0.325051 0.562099 -0.975579
v -0.387004 0.562099 -1.040486
v 0.111058 0.562099 -0.190836
v 0.007555 0.562099 -0.190836
v -0.368029 0.562099 -0.827877
v -0.010245 0.562099 -0.484866
v -0.168427 0.562099 -0.535018
v -0.219133 0.562099 -0.632632
v -0.108342 0.562099 -0.687467
v -0.422553 0.562099 -0.882514
v -0.484507 0.562099 -0.947421
v -0.171079 -0.549917 1.015863
v -0.293370 0.638899 0.899139
v 0.627224 -0.549917 0.190836
v 0.081196 0.638899 0.190836
v -0.229475 -0.549917 0.960125
v -0.377597 0.638899 0.818744
v -0.035241 0.638899 0.190836
v 0.927363 -0.549917 0.190836
v 1.334712 -0.549917 -0.000000
v 0.081195 0.638899 0.000000
v 0.735169 -0.549917 -0.000000
v -0.035241 0.638899 0.000000
v 0.458538 -0.549917 0.725892
v 0.613645 -0.549917 0.901225
v 0.274842 -0.549917 0.634530
v 0.171532 -0.549917 0.689576
v -0.087835 0.638899 0.576591
v -0.036741 0.638899 0.471067
v -0.191905 0.638899 0.524344
v -0.142268 0.638899 0.421829
v 0.217256 -0.549917 0.834538
v 0.079483 -0.549917 0.769650
v -0.135505 0.638899 0.675045
v -0.239756 0.638899 0.623169
v -0.175456 -0.549917 1.118365
v -0.346652 0.638899 0.954961
v -0.301989 -0.549917 0.997591
v -0.430879 0.638899 0.874566
v -0.342081 -0.549917 1.083364
v -0.408605 0.638899 1.019868
v -0.363942 -0.549917 1.062498
v -0.492832 0.638899 0.939474
v -0.191684 -0.349610 0.996196
v 0.784790 -0.349610 0.190836
v 0.515603 -0.349610 0.190836
v -0.254433 -0.349610 0.936303
v 0.605361 -0.349610 -0.000000
v 1.123504 -0.349610 -0.000000
v 0.375088 -0.349610 0.682956
v 0.495451 -0.349610 0.846527
v 0.110296 -0.349610 0.661735
v 0.204562 -0.349610 0.598692
v 0.025694 -0.349610 0.744969
v 0.157818 -0.349610 0.807665
v -0.204301 -0.349610 1.090833
v -0.323706 -0.349610 0.976862
v -0.353290 -0.349610 1.072666
v -0.385659 -0.349610 1.041769
v -0.214503 -0.301470 0.974416
v 0.391656 -0.301470 0.796879
v 0.187671 -0.301470 0.590078
v -0.233885 -0.301470 1.062596
v -0.368396 -0.301470 1.058247
v 0.659592 -0.301470 0.190836
v 0.488777 -0.301470 0.190836
v -0.260431 -0.301470 0.930578
v 0.574164 -0.301470 -0.000000
v 0.941964 -0.301470 -0.000000
v 0.298661 -0.301470 0.645342
v 0.095579 -0.301470 0.655044
v 0.012766 -0.301470 0.739038
v 0.102114 -0.301470 0.781151
v -0.328925 -0.301470 0.971880
v -0.390879 -0.301470 1.036788
v -0.271768 0.562099 0.919757
v -0.060577 0.562099 0.588819
v -0.115322 0.562099 0.435569
v -0.325050 0.562099 0.975579
v -0.387003 0.562099 1.040486
v 0.111058 0.562099 0.190836
v 0.007555 0.562099 0.190836
v -0.368028 0.562099 0.827877
v 0.014529 0.562099 0.000000
v 0.181582 0.562099 -0.000000
v -0.010244 0.562099 0.484866
v -0.168426 0.562099 0.535018
v -0.219132 0.562099 0.632632
v -0.108342 0.562099 0.687467
v -0.422553 0.562099 0.882514
v -0.484506 0.562099 0.947421
vt 0.608850 0.625000
vt 0.625000 0.625000
vt 0.625000 0.648854
vt 0.608850 0.648855
vt 0.125000 0.648854
vt 0.375000 0.648855
vt 0.375000 0.691804
vt 0.125000 0.692076
vt 0.875000 0.648854
vt 0.875000 0.690386
vt 0.625000 0.690595
vt 0.125000 0.750000
vt 0.375000 0.750000
vt 0.375000 0.750000
vt 0.125000 0.750000
vt 0.608850 0.031367
vt 0.625000 0.031285
vt 0.625000 0.041532
vt 0.608850 0.041641
vt 0.875000 0.625000
vt 0.125000 0.625000
vt 0.375000 0.625000
vt 0.608850 0.690673
vt 0.608850 0.101145
vt 0.625000 0.101145
vt 0.625000 0.125000
vt 0.608850 0.125000
vt 0.625000 0.718558
vt 0.875000 0.718715
vt 0.875000 0.750000
vt 0.625000 0.750000
vt 0.608850 0.059504
vt 0.625000 0.059614
vt 0.608850 0.718499
vt 0.608850 0.750000
vt 0.417123 0.058209
vt 0.375000 0.057924
vt 0.375000 0.043221
vt 0.417123 0.042937
vt 0.875000 0.708468
vt 0.625000 0.708259
vt 0.375000 0.707051
vt 0.125000 0.706779
vt 0.417123 0.707254
vt 0.417123 0.691600
vt 0.125000 0.717443
vt 0.375000 0.717648
vt 0.608849 0.708181
vt 0.608850 0.000000
vt 0.625000 0.000000
vt 0.625000 0.750000
vt 0.875000 0.750000
vt 0.875000 0.750000
vt 0.625000 0.750000
vt 0.417123 0.000000
vt 0.375000 0.000000
vt 0.375000 0.000000
vt 0.417123 0.000000
vt 0.608850 0.750000
vt 0.608850 0.750000
vt 0.625000 1.000000
vt 0.608850 1.000000
vt 0.375000 0.750000
vt 0.125000 0.750000
vt 0.375000 0.000000
vt 0.417123 0.000000
vt 0.427247 0.000000
vt 0.427247 0.000000
vt 0.417123 0.750000
vt 0.417123 0.750000
vt 0.417123 1.000000
vt 0.375000 1.000000
vt 0.417123 0.750000
vt 0.427247 0.000000
vt 0.417123 0.032343
vt 0.375000 0.032557
vt 0.417123 0.717801
vt 0.427247 0.707303
vt 0.427247 0.691551
vt 0.427247 0.058277
vt 0.427247 0.042868
vt 0.417123 0.101145
vt 0.375000 0.101145
vt 0.417123 0.125000
vt 0.375000 0.125000
vt 0.417123 0.648854
vt 0.417123 0.625000
vt 0.608850 0.000000
vt 0.608850 0.000000
vt 0.427247 0.750000
vt 0.427247 0.750000
vt 0.427247 1.000000
vt 0.427247 0.750000
vt 0.427247 0.032291
vt 0.427247 0.717838
vt 0.427247 0.101145
vt 0.427247 0.125000
vt 0.427247 0.648854
vt 0.427247 0.625000
vt 0.625000 0.000000
vt 0.625000 0.000000
vt 0.608850 0.648855
vt 0.625000 0.648854
vt 0.125000 0.648854
vt 0.125000 0.692076
vt 0.375000 0.691804
vt 0.375000 0.648855
vt 0.625000 0.690595
vt 0.875000 0.690386
vt 0.875000 0.648854
vt 0.125000 0.750000
vt 0.125000 0.750000
vt 0.375000 0.750000
vt 0.375000 0.750000
vt 0.608850 0.031367
vt 0.608850 0.041641
vt 0.625000 0.041532
vt 0.625000 0.031285
vt 0.608850 0.690673
vt 0.608850 0.101145
vt 0.625000 0.101145
vt 0.625000 0.718558
vt 0.625000 0.750000
vt 0.875000 0.750000
vt 0.875000 0.718715
vt 0.608850 0.059504
vt 0.625000 0.059614
vt 0.608850 0.718499
vt 0.608850 0.750000
vt 0.417123 0.058209
vt 0.417123 0.042937
vt 0.375000 0.043221
vt 0.375000 0.057924
vt 0.875000 0.708468
vt 0.625000 0.708259
vt 0.375000 0.707051
vt 0.125000 0.706779
vt 0.417123 0.707254
vt 0.417123 0.691600
vt 0.125000 0.717443
vt 0.375000 0.717648
vt 0.608849 0.708181
vt 0.608850 0.000000
vt 0.625000 0.000000
vt 0.625000 0.750000
vt 0.625000 0.750000
vt 0.875000 0.750000
vt 0.875000 0.750000
vt 0.417123 0.000000
vt 0.417123 0.000000
vt 0.375000 0.000000
vt 0.375000 0.000000
vt 0.608850 0.750000
vt 0.608850 0.750000
vt 0.608850 1.000000
vt 0.625000 1.000000
vt 0.125000 0.750000
vt 0.375000 0.750000
vt 0.417123 0.000000
vt 0.375000 0.000000
vt 0.427247 0.000000
vt 0.427247 0.000000
vt 0.417123 0.750000
vt 0.417123 0.750000
vt 0.375000 1.000000
vt 0.417123 1.000000
vt 0.417123 0.750000
vt 0.427247 0.000000
vt 0.375000 0.032557
vt 0.417123 0.032343
vt 0.417123 0.717801
vt 0.427247 0.707303
vt 0.427247 0.691551
vt 0.427247 0.058277
vt 0.427247 0.042868
vt 0.375000 0.101145
vt 0.417123 0.101145
vt 0.417123 0.648854
vt 0.608850 0.000000
vt 0.608850 0.000000
vt 0.427247 0.750000
vt 0.427247 0.750000
vt 0.427247 1.000000
vt 0.427247 0.750000
vt 0.427247 0.032291
vt 0.427247 0.717838
vt 0.427247 0.101145
vt 0.427247 0.648854
vt 0.625000 0.000000
vt 0.625000 0.000000
vn -0.8564 -0.5161 0.0156
vn 0.0000 -1.0000 0.0000
vn 0.0000 1.0000 -0.0000
vn 0.8389 0.3624 -0.4062
vn -0.8218 -0.4087 0.3971
vn 0.7552 0.6404 -0.1396
vn 0.8648 0.3497 -0.3603
vn -0.7857 -0.2242 0.5765
vn 0.7551 0.2305 0.6138
vn -0.4907 -0.2916 0.8211
vn -0.8524 -0.3008 0.4277
vn 0.7635 0.3580 -0.5375
vn 0.9876 0.1319 -0.0851
vn -0.7065 -0.1590 0.6896
vn -0.6905 -0.0000 -0.7234
vn -0.7154 -0.1482 0.6828
vn -0.1656 0.0773 -0.9832
vn -0.0734 0.3753 -0.9240
vn -0.4765 -0.1518 0.8660
vn 0.8350 0.5304 -0.1462
vn 0.4400 0.1899 -0.8777
vn -0.6518 -0.2796 0.7050
vn -0.5397 -0.3021 0.7858
vn 0.5734 0.7214 0.3882
vn -0.5324 -0.2041 0.8215
vn 0.6802 0.4461 -0.5817
vn 0.4225 0.3732 -0.8260
vn -0.7291 -0.3819 0.5680
vn -0.1410 0.1371 -0.9805
vn -0.7829 -0.4718 0.4055
vn 0.9159 0.3710 0.1529
vn -0.7072 -0.3314 0.6245
vn 0.8871 0.1130 -0.4476
vn 0.2937 0.0765 -0.9528
vn -0.5048 -0.1533 0.8495
vn 0.3806 0.6435 -0.6641
vn -0.6777 -0.2835 0.6785
vn -0.5567 -0.2068 0.8045
vn 0.3656 0.8819 -0.2976
vn 0.2692 0.8577 -0.4381
vn -0.7357 -0.3840 0.5580
vn -0.0729 0.5417 -0.8374
vn -0.7971 -0.4804 0.3658
vn 0.6742 0.3624 -0.6435
vn -0.8374 -0.3426 0.4260
vn -0.6073 -0.1574 0.7787
vn 0.6543 0.1648 -0.7381
vn -0.7698 -0.2952 0.5659
vn -0.6595 -0.2168 0.7197
vn 0.7615 0.4236 -0.4906
vn 0.6416 0.4862 -0.5932
vn -0.7677 -0.3938 0.5055
vn 0.2310 0.2528 -0.9396
vn -0.8387 -0.5054 0.2029
vn -0.8564 -0.5161 -0.0156
vn 0.8389 0.3624 0.4062
vn -0.8218 -0.4087 -0.3971
vn 0.7552 0.6404 0.1396
vn 0.8648 0.3497 0.3603
vn -0.7857 -0.2242 -0.5765
vn 0.7551 0.2305 -0.6138
vn -0.4907 -0.2916 -0.8211
vn -0.8524 -0.3008 -0.4277
vn 0.7635 0.3580 0.5375
vn 0.9876 0.1319 0.0851
vn -0.7065 -0.1590 -0.6896
vn -0.6905 0.0000 0.7234
vn -0.7154 -0.1482 -0.6828
vn -0.1656 0.0773 0.9832
vn -0.0734 0.3753 0.9240
vn -0.4765 -0.1518 -0.8660
vn 0.8350 0.5304 0.1462
vn 0.4400 0.1899 0.8777
vn -0.6518 -0.2796 -0.7050
vn -0.5397 -0.3021 -0.7858
vn 0.5734 0.7214 -0.3883
vn -0.5324 -0.2041 -0.8215
vn 0.6802 0.4461 0.5817
vn 0.4225 0.3732 0.8260
vn -0.7291 -0.3819 -0.5680
vn -0.1410 0.1371 0.9805
vn -0.7829 -0.4718 -0.4055
vn 0.9159 0.3710 -0.1529
vn -0.7072 -0.3314 -0.6245
vn 0.8871 0.1130 0.4476
vn 0.2937 0.0765 0.9528
vn -0.5048 -0.1533 -0.8495
vn 0.3806 0.6435 0.6641
vn -0.6777 -0.2835 -0.6785
vn -0.5567 -0.2068 -0.8045
vn 0.3656 0.8819 0.2976
vn 0.2692 0.8577 0.4381
vn -0.7357 -0.3840 -0.5580
vn -0.0729 0.5417 0.8374
vn -0.7971 -0.4804 -0.3658
vn 0.6742 0.3624 0.6435
vn -0.8374 -0.3426 -0.4260
vn -0.6073 -0.1574 -0.7787
vn 0.6543 0.1648 0.7381
vn -0.7698 -0.2952 -0.5659
vn -0.6595 -0.2168 -0.7197
vn 0.7615 0.4236 0.4906
vn 0.6416 0.4862 0.5932
vn -0.7677 -0.3938 -0.5055
vn 0.2310 0.2528 0.9396
vn -0.8387 -0.5054 -0.2029
usemtl grey
s off
f 143/1/1 82/2/1 7/3/1 63/4/1
f 8/5/2 3/6/2 11/7/2 9/8/2
f 7/3/3 4/9/3 14/10/3 16/11/3
f 1/12/2 5/13/2 23/14/2 21/15/2
f 68/16/4 19/17/4 13/18/4 58/19/4
f 82/2/3 80/20/3 4/9/3 7/3/3
f 79/21/2 81/22/2 3/6/2 8/5/2
f 63/4/5 7/3/5 16/11/5 59/23/5
f 62/24/6 4/25/6 80/26/6 144/27/6
f 20/28/3 19/29/3 2/30/3 6/31/3
f 65/32/7 14/33/7 4/25/7 62/24/7
f 67/34/8 20/28/8 6/31/8 64/35/8
f 33/36/9 9/37/9 10/38/9 34/39/9
f 13/40/3 15/41/3 16/11/3 14/10/3
f 12/42/2 10/43/2 9/8/2 11/7/2
f 35/44/10 12/42/10 11/7/10 36/45/10
f 17/46/2 18/47/2 5/13/2 1/12/2
f 10/43/2 12/42/2 18/47/2 17/46/2
f 66/48/11 15/41/11 20/28/11 67/34/11
f 15/41/3 13/40/3 19/29/3 20/28/3
f 57/49/12 2/50/12 19/17/12 68/16/12
f 24/51/3 22/52/3 26/53/3 28/54/3
f 29/55/13 1/56/13 21/57/13 39/58/13
f 6/31/3 2/30/3 22/52/3 24/51/3
f 64/35/14 6/31/14 24/51/14 69/59/14
f 70/60/15 28/54/15 26/61/15 61/62/15
f 69/59/16 24/51/16 28/54/16 70/60/16
f 21/15/2 23/14/2 27/63/2 25/64/2
f 39/58/17 21/57/17 25/65/17 41/66/17
f 46/67/18 39/58/18 41/66/18 47/68/18
f 23/14/16 40/69/16 42/70/16 27/63/16
f 27/63/15 42/70/15 41/71/15 25/72/15
f 5/13/19 32/73/19 40/69/19 23/14/19
f 43/74/20 29/55/20 39/58/20 46/67/20
f 1/56/21 29/55/21 38/75/21 17/76/21
f 12/42/22 35/44/22 37/77/22 18/47/22
f 52/78/23 35/44/23 36/45/23 45/79/23
f 51/80/24 33/36/24 34/39/24 44/81/24
f 18/47/25 37/77/25 32/73/25 5/13/25
f 9/37/26 33/36/26 30/82/26 8/83/26
f 8/83/27 30/82/27 108/84/27 79/85/27
f 3/6/28 31/86/28 36/45/28 11/7/28
f 17/76/29 38/75/29 34/39/29 10/38/29
f 81/22/30 107/87/30 31/86/30 3/6/30
f 65/32/31 51/80/31 44/81/31 58/19/31
f 66/48/32 52/78/32 45/79/32 59/23/32
f 57/49/33 43/74/33 46/67/33 60/88/33
f 60/88/34 46/67/34 47/68/34 61/89/34
f 40/69/16 55/90/16 56/91/16 42/70/16
f 42/70/15 56/91/15 47/92/15 41/71/15
f 32/73/35 50/93/35 55/90/35 40/69/35
f 29/55/36 43/74/36 54/94/36 38/75/36
f 35/44/37 52/78/37 53/95/37 37/77/37
f 37/77/38 53/95/38 50/93/38 32/73/38
f 33/36/39 51/80/39 48/96/39 30/82/39
f 30/82/40 48/96/40 128/97/40 108/84/40
f 31/86/41 49/98/41 45/79/41 36/45/41
f 38/75/42 54/94/42 44/81/42 34/39/42
f 107/87/43 127/99/43 49/98/43 31/86/43
f 22/100/44 60/88/44 61/89/44 26/101/44
f 2/50/44 57/49/44 60/88/44 22/100/44
f 15/41/45 66/48/45 59/23/45 16/11/45
f 14/33/4 65/32/4 58/19/4 13/18/4
f 55/90/16 69/59/16 70/60/16 56/91/16
f 56/91/15 70/60/15 61/62/15 47/92/15
f 50/93/46 64/35/46 69/59/46 55/90/46
f 43/74/47 57/49/47 68/16/47 54/94/47
f 52/78/48 66/48/48 67/34/48 53/95/48
f 53/95/49 67/34/49 64/35/49 50/93/49
f 51/80/50 65/32/50 62/24/50 48/96/50
f 48/96/51 62/24/51 144/27/51 128/97/51
f 49/98/52 63/4/52 59/23/52 45/79/52
f 54/94/53 68/16/53 58/19/53 44/81/53
f 127/99/54 143/1/54 63/4/54 49/98/54
f 143/1/55 141/102/55 77/103/55 82/2/55
f 78/104/2 83/105/2 85/106/2 73/107/2
f 77/103/3 90/108/3 88/109/3 74/110/3
f 71/111/2 95/112/2 97/113/2 75/114/2
f 148/115/56 136/116/56 87/117/56 93/118/56
f 82/2/3 77/103/3 74/110/3 80/20/3
f 79/21/2 78/104/2 73/107/2 81/22/2
f 141/102/57 137/119/57 90/108/57 77/103/57
f 140/120/58 144/27/58 80/26/58 74/121/58
f 94/122/3 76/123/3 72/124/3 93/125/3
f 145/126/59 140/120/59 74/121/59 88/127/59
f 147/128/60 142/129/60 76/123/60 94/122/60
f 109/130/61 110/131/61 84/132/61 83/133/61
f 87/134/3 88/109/3 90/108/3 89/135/3
f 86/136/2 85/106/2 83/105/2 84/137/2
f 111/138/62 112/139/62 85/106/62 86/136/62
f 91/140/2 71/111/2 75/114/2 92/141/2
f 84/137/2 91/140/2 92/141/2 86/136/2
f 146/142/63 147/128/63 94/122/63 89/135/63
f 89/135/3 94/122/3 93/125/3 87/134/3
f 135/143/64 148/115/64 93/118/64 72/144/64
f 98/145/3 102/146/3 100/147/3 96/148/3
f 103/149/65 115/150/65 95/151/65 71/152/65
f 76/123/3 98/145/3 96/148/3 72/124/3
f 142/129/66 149/153/66 98/145/66 76/123/66
f 150/154/67 139/155/67 100/156/67 102/146/67
f 149/153/68 150/154/68 102/146/68 98/145/68
f 95/112/2 99/157/2 101/158/2 97/113/2
f 115/150/69 117/159/69 99/160/69 95/151/69
f 122/161/70 123/162/70 117/159/70 115/150/70
f 97/113/68 101/158/68 118/163/68 116/164/68
f 101/158/67 99/165/67 117/166/67 118/163/67
f 75/114/71 97/113/71 116/164/71 106/167/71
f 119/168/72 122/161/72 115/150/72 103/149/72
f 71/152/73 91/169/73 114/170/73 103/149/73
f 86/136/74 92/141/74 113/171/74 111/138/74
f 130/172/75 121/173/75 112/139/75 111/138/75
f 129/174/76 120/175/76 110/131/76 109/130/76
f 92/141/77 75/114/77 106/167/77 113/171/77
f 83/133/78 78/176/78 104/177/78 109/130/78
f 78/176/79 79/85/79 108/84/79 104/177/79
f 73/107/80 85/106/80 112/139/80 105/178/80
f 91/169/81 84/132/81 110/131/81 114/170/81
f 81/22/82 73/107/82 105/178/82 107/87/82
f 145/126/83 136/116/83 120/175/83 129/174/83
f 146/142/84 137/119/84 121/173/84 130/172/84
f 135/143/85 138/179/85 122/161/85 119/168/85
f 138/179/86 139/180/86 123/162/86 122/161/86
f 116/164/68 118/163/68 134/181/68 133/182/68
f 118/163/67 117/166/67 123/183/67 134/181/67
f 106/167/87 116/164/87 133/182/87 126/184/87
f 103/149/88 114/170/88 132/185/88 119/168/88
f 111/138/89 113/171/89 131/186/89 130/172/89
f 113/171/90 106/167/90 126/184/90 131/186/90
f 109/130/91 104/177/91 124/187/91 129/174/91
f 104/177/92 108/84/92 128/97/92 124/187/92
f 105/178/93 112/139/93 121/173/93 125/188/93
f 114/170/94 110/131/94 120/175/94 132/185/94
f 107/87/95 105/178/95 125/188/95 127/99/95
f 96/189/96 100/190/96 139/180/96 138/179/96
f 72/144/96 96/189/96 138/179/96 135/143/96
f 89/135/97 90/108/97 137/119/97 146/142/97
f 88/127/56 87/117/56 136/116/56 145/126/56
f 133/182/68 134/181/68 150/154/68 149/153/68
f 134/181/67 123/183/67 139/155/67 150/154/67
f 126/184/98 133/182/98 149/153/98 142/129/98
f 119/168/99 132/185/99 148/115/99 135/143/99
f 130/172/100 131/186/100 147/128/100 146/142/100
f 131/186/101 126/184/101 142/129/101 147/128/101
f 129/174/102 124/187/102 140/120/102 145/126/102
f 124/187/103 128/97/103 144/27/103 140/120/103
f 125/188/104 121/173/104 137/119/104 141/102/104
f 132/185/105 120/175/105 136/116/105 148/115/105
f 127/99/106 125/188/106 141/102/106 143/1/106
