# Blender v2.80 (sub 75) OBJ File: 'bot.blend'
# www.blender.org
mtllib tracks.mtl
o tracks
v -1.145250 -0.277213 1.120081
v -1.145250 0.277213 1.120081
v -1.161049 -0.338206 0.625676
v -1.161049 0.338206 0.625676
v 1.145250 -0.277213 1.120081
v 1.145250 0.277213 1.120081
v 1.161049 -0.338206 0.625676
v 1.161049 0.338206 0.625676
v -1.276603 -0.204269 1.120081
v -1.276603 0.204269 1.120081
v -1.337596 0.240165 0.625676
v -1.337596 -0.240165 0.625676
v 1.337596 0.240165 0.625676
v 1.337596 -0.240165 0.625676
v 1.276603 0.204269 1.120081
v 1.276603 -0.204269 1.120081
v -1.337596 0.240165 1.120081
v -1.161049 0.338206 1.120081
v 1.337596 -0.240165 1.120081
v 1.161049 -0.338206 1.120081
v -1.161049 -0.338206 1.120081
v 1.161049 0.338206 1.120081
v -1.337596 -0.240165 1.120081
v 1.337596 0.240165 1.120081
v -1.145250 -0.277213 1.042942
v -1.145250 0.277213 1.042942
v 1.145250 -0.277213 1.042942
v 1.145250 0.277213 1.042942
v -1.276603 -0.204269 1.042942
v -1.276603 0.204269 1.042942
v 1.276603 0.204269 1.042942
v 1.276603 -0.204269 1.042942
v -1.145250 -0.277213 -1.120081
v -1.145250 0.277213 -1.120081
v -1.161049 -0.338206 -0.625676
v -1.161049 0.338206 -0.625676
v 1.145250 -0.277213 -1.120081
v 1.145250 0.277213 -1.120081
v 1.161049 -0.338206 -0.625676
v 1.161049 0.338206 -0.625676
v -1.276603 -0.204269 -1.120081
v -1.276603 0.204269 -1.120081
v -1.337596 0.240165 -0.625676
v -1.337596 -0.240165 -0.625676
v 1.337596 0.240165 -0.625676
v 1.337596 -0.240165 -0.625676
v 1.276603 0.204269 -1.120081
v 1.276603 -0.204269 -1.120081
v -1.337596 0.240165 -1.120081
v -1.161049 0.338206 -1.120081
v 1.337596 -0.240165 -1.120081
v 1.161049 -0.338206 -1.120081
v -1.161049 -0.338206 -1.120081
v 1.161049 0.338206 -1.120081
v -1.337596 -0.240165 -1.120081
v 1.337596 0.240165 -1.120081
v -1.145250 -0.277213 -1.042942
v -1.145250 0.277213 -1.042942
v 1.145250 -0.277213 -1.042942
v 1.145250 0.277213 -1.042942
v -1.276603 -0.204269 -1.042942
v -1.276603 0.204269 -1.042942
v 1.276603 0.204269 -1.042942
v 1.276603 -0.204269 -1.042942
vt 0.541667 0.000000
vt 0.625000 0.000000
vt 0.625000 0.250000
vt 0.541667 0.250000
vt 0.625000 0.500000
vt 0.541667 0.500000
vt 0.625000 0.750000
vt 0.541667 0.750000
vt 0.464561 0.756480
vt 0.535439 0.756480
vt 0.535439 0.756480
vt 0.464561 0.756480
vt 0.125000 0.500000
vt 0.375000 0.500000
vt 0.375000 0.750000
vt 0.125000 0.750000
vt 0.875000 0.500000
vt 0.875000 0.750000
vt 0.573157 0.986395
vt 0.535439 0.993520
vt 0.535439 0.993520
vt 0.573157 0.986395
vt 0.426843 0.986395
vt 0.426843 0.763605
vt 0.426843 0.763605
vt 0.426843 0.986395
vt 0.458333 0.500000
vt 0.458333 0.750000
vt 0.375000 0.250000
vt 0.458333 0.250000
vt 0.375000 0.000000
vt 0.458333 0.000000
vt 0.625000 1.000000
vt 0.541667 1.000000
vt 0.375000 1.000000
vt 0.573157 0.763605
vt 0.464561 0.993520
vt 0.458333 1.000000
vt 0.573157 0.763605
vt 0.464561 0.993520
vt 0.541667 0.000000
vt 0.541667 0.250000
vt 0.625000 0.250000
vt 0.625000 0.000000
vt 0.541667 0.500000
vt 0.625000 0.500000
vt 0.541667 0.750000
vt 0.625000 0.750000
vt 0.464561 0.756480
vt 0.464561 0.756480
vt 0.535439 0.756480
vt 0.535439 0.756480
vt 0.125000 0.500000
vt 0.125000 0.750000
vt 0.375000 0.750000
vt 0.375000 0.500000
vt 0.875000 0.750000
vt 0.875000 0.500000
vt 0.573157 0.986395
vt 0.573157 0.986395
vt 0.535439 0.993520
vt 0.535439 0.993520
vt 0.426843 0.986395
vt 0.426843 0.986395
vt 0.426843 0.763605
vt 0.426843 0.763605
vt 0.458333 0.750000
vt 0.458333 0.500000
vt 0.375000 0.250000
vt 0.458333 0.250000
vt 0.375000 0.000000
vt 0.458333 0.000000
vt 0.541667 1.000000
vt 0.625000 1.000000
vt 0.375000 1.000000
vt 0.573157 0.763605
vt 0.458333 1.000000
vt 0.464561 0.993520
vt 0.573157 0.763605
vt 0.464561 0.993520
vn -0.4855 0.8742 0.0000
vn 0.0000 0.0000 -1.0000
vn 0.4855 0.8742 0.0000
vn -1.0000 0.0000 0.0000
vn 0.0000 -1.0000 0.0000
vn 0.0000 1.0000 0.0000
vn 0.4855 -0.8742 0.0000
vn 1.0000 0.0000 0.0000
vn -0.4855 -0.8742 0.0000
vn 0.0000 0.0000 1.0000
usemtl grey
s off
f 17/1/1 18/2/1 4/3/1 11/4/1
f 11/4/2 4/3/2 8/5/2 13/6/2
f 13/6/3 8/5/3 22/7/3 24/8/3
f 16/9/4 15/10/4 31/11/4 32/12/4
f 3/13/5 7/14/5 20/15/5 21/16/5
f 8/5/6 4/17/6 18/18/6 22/7/6
f 2/19/7 10/20/7 30/21/7 26/22/7
f 1/23/6 5/24/6 27/25/6 25/26/6
f 7/14/7 14/27/7 19/28/7 20/15/7
f 14/27/8 13/6/8 24/8/8 19/28/8
f 3/29/2 12/30/2 14/27/2 7/14/2
f 12/30/2 11/4/2 13/6/2 14/27/2
f 21/31/9 23/32/9 12/30/9 3/29/9
f 23/32/4 17/1/4 11/4/4 12/30/4
f 10/20/10 2/19/10 18/33/10 17/34/10
f 16/9/10 5/24/10 20/15/10 19/28/10
f 5/24/10 1/23/10 21/35/10 20/15/10
f 2/19/10 6/36/10 22/7/10 18/33/10
f 1/23/10 9/37/10 23/38/10 21/35/10
f 9/37/10 10/20/10 17/34/10 23/38/10
f 6/36/10 15/10/10 24/8/10 22/7/10
f 15/10/10 16/9/10 19/28/10 24/8/10
f 31/11/10 28/39/10 26/22/10 30/21/10
f 27/25/10 32/12/10 29/40/10 25/26/10
f 32/12/10 31/11/10 30/21/10 29/40/10
f 10/20/8 9/37/8 29/40/8 30/21/8
f 6/36/5 2/19/5 26/22/5 28/39/5
f 5/24/1 16/9/1 32/12/1 27/25/1
f 15/10/9 6/36/9 28/39/9 31/11/9
f 9/37/3 1/23/3 25/26/3 29/40/3
f 49/41/1 43/42/1 36/43/1 50/44/1
f 43/42/10 45/45/10 40/46/10 36/43/10
f 45/45/3 56/47/3 54/48/3 40/46/3
f 48/49/4 64/50/4 63/51/4 47/52/4
f 35/53/5 53/54/5 52/55/5 39/56/5
f 40/46/6 54/48/6 50/57/6 36/58/6
f 34/59/7 58/60/7 62/61/7 42/62/7
f 33/63/6 57/64/6 59/65/6 37/66/6
f 39/56/7 52/55/7 51/67/7 46/68/7
f 46/68/8 51/67/8 56/47/8 45/45/8
f 35/69/10 39/56/10 46/68/10 44/70/10
f 44/70/10 46/68/10 45/45/10 43/42/10
f 53/71/9 35/69/9 44/70/9 55/72/9
f 55/72/4 44/70/4 43/42/4 49/41/4
f 42/62/2 49/73/2 50/74/2 34/59/2
f 48/49/2 51/67/2 52/55/2 37/66/2
f 37/66/2 52/55/2 53/75/2 33/63/2
f 34/59/2 50/74/2 54/48/2 38/76/2
f 33/63/2 53/75/2 55/77/2 41/78/2
f 41/78/2 55/77/2 49/73/2 42/62/2
f 38/76/2 54/48/2 56/47/2 47/52/2
f 47/52/2 56/47/2 51/67/2 48/49/2
f 63/51/2 62/61/2 58/60/2 60/79/2
f 59/65/2 57/64/2 61/80/2 64/50/2
f 64/50/2 61/80/2 62/61/2 63/51/2
f 42/62/8 62/61/8 61/80/8 41/78/8
f 38/76/5 60/79/5 58/60/5 34/59/5
f 37/66/1 59/65/1 64/50/1 48/49/1
f 47/52/9 63/51/9 60/79/9 38/76/9
f 41/78/3 61/80/3 57/64/3 33/63/3
