# Blender v2.80 (sub 75) OBJ File: 'bot.blend'
# www.blender.org
mtllib tracks.mtl
o tracks
v -1.120081 1.145250 -0.277213
v -1.120081 1.145250 0.277213
v -0.625676 1.161049 -0.338206
v -0.625676 1.161049 0.338206
v -1.120081 -1.145250 -0.277213
v -1.120081 -1.145250 0.277213
v -0.625676 -1.161049 -0.338206
v -0.625676 -1.161049 0.338206
v -1.120081 1.276603 -0.204269
v -1.120081 1.276603 0.204269
v -0.625676 1.337596 0.240165
v -0.625676 1.337596 -0.240165
v -0.625676 -1.337596 0.240165
v -0.625676 -1.337596 -0.240165
v -1.120081 -1.276603 0.204269
v -1.120081 -1.276603 -0.204269
v -1.120081 1.337596 0.240165
v -1.120081 1.161049 0.338206
v -1.120081 -1.337596 -0.240165
v -1.120081 -1.161049 -0.338206
v -1.120081 1.161049 -0.338206
v -1.120081 -1.161049 0.338206
v -1.120081 1.337596 -0.240165
v -1.120081 -1.337596 0.240165
v -1.042942 1.145250 -0.277213
v -1.042942 1.145250 0.277213
v -1.042942 -1.145250 -0.277213
v -1.042942 -1.145250 0.277213
v -1.042942 1.276603 -0.204269
v -1.042942 1.276603 0.204269
v -1.042942 -1.276603 0.204269
v -1.042942 -1.276603 -0.204269
v 1.120081 1.145250 -0.277213
v 1.120081 1.145250 0.277213
v 0.625676 1.161049 -0.338206
v 0.625676 1.161049 0.338206
v 1.120081 -1.145250 -0.277213
v 1.120081 -1.145250 0.277213
v 0.625676 -1.161049 -0.338206
v 0.625676 -1.161049 0.338206
v 1.120081 1.276603 -0.204269
v 1.120081 1.276603 0.204269
v 0.625676 1.337596 0.240165
v 0.625676 1.337596 -0.240165
v 0.625676 -1.337596 0.240165
v 0.625676 -1.337596 -0.240165
v 1.120081 -1.276603 0.204269
v 1.120081 -1.276603 -0.204269
v 1.120081 1.337596 0.240165
v 1.120081 1.161049 0.338206
v 1.120081 -1.337596 -0.240165
v 1.120081 -1.161049 -0.338206
v 1.120081 1.161049 -0.338206
v 1.120081 -1.161049 0.338206
v 1.120081 1.337596 -0.240165
v 1.120081 -1.337596 0.240165
v 1.042942 1.145250 -0.277213
v 1.042942 1.145250 0.277213
v 1.042942 -1.145250 -0.277213
v 1.042942 -1.145250 0.277213
v 1.042942 1.276603 -0.204269
v 1.042942 1.276603 0.204269
v 1.042942 -1.276603 0.204269
v 1.042942 -1.276603 -0.204269
vt 0.625000 0.000000
vt 0.541667 0.250000
vt 0.541667 0.000000
vt 0.625000 0.500000
vt 0.541667 0.500000
vt 0.541667 0.750000
vt 0.535439 0.756480
vt 0.464561 0.756480
vt 0.464561 0.756480
vt 0.375000 0.500000
vt 0.125000 0.750000
vt 0.125000 0.500000
vt 0.875000 0.500000
vt 0.625000 0.750000
vt 0.535439 0.993520
vt 0.573157 0.986395
vt 0.573157 0.986395
vt 0.426843 0.763605
vt 0.426843 0.986395
vt 0.426843 0.986395
vt 0.458333 0.500000
vt 0.375000 0.750000
vt 0.458333 0.750000
vt 0.458333 0.250000
vt 0.375000 0.250000
vt 0.458333 0.000000
vt 0.375000 0.000000
vt 0.625000 1.000000
vt 0.541667 1.000000
vt 0.573157 0.763605
vt 0.464561 0.993520
vt 0.375000 1.000000
vt 0.458333 1.000000
vt 0.535439 0.756480
vt 0.535439 0.993520
vt 0.426843 0.763605
vt 0.464561 0.993520
vt 0.573157 0.763605
vt 0.541667 0.250000
vt 0.625000 0.000000
vt 0.541667 0.000000
vt 0.625000 0.500000
vt 0.625000 0.250000
vt 0.541667 0.750000
vt 0.541667 0.500000
vt 0.464561 0.756480
vt 0.535439 0.756480
vt 0.464561 0.756480
vt 0.125000 0.750000
vt 0.375000 0.500000
vt 0.125000 0.500000
vt 0.625000 0.750000
vt 0.875000 0.500000
vt 0.573157 0.986395
vt 0.535439 0.993520
vt 0.573157 0.986395
vt 0.426843 0.986395
vt 0.426843 0.763605
vt 0.426843 0.986395
vt 0.375000 0.750000
vt 0.458333 0.500000
vt 0.458333 0.750000
vt 0.458333 0.250000
vt 0.375000 0.250000
vt 0.458333 0.000000
vt 0.375000 0.000000
vt 0.625000 1.000000
vt 0.573157 0.763605
vt 0.375000 1.000000
vt 0.464561 0.993520
vt 0.458333 1.000000
vt 0.535439 0.993520
vt 0.573157 0.763605
vt 0.535439 0.756480
vt 0.426843 0.763605
vt 0.464561 0.993520
vt 0.625000 0.250000
vt 0.875000 0.750000
vt 0.875000 0.750000
vt 0.541667 1.000000
vn 0.0000 0.4855 0.8742
vn 1.0000 0.0000 0.0000
vn 0.0000 -0.4855 0.8742
vn 0.0000 1.0000 0.0000
vn 0.0000 0.0000 -1.0000
vn 0.0000 0.0000 1.0000
vn 0.0000 -0.4855 -0.8742
vn 0.0000 -1.0000 0.0000
vn 0.0000 0.4855 -0.8742
vn -1.0000 0.0000 0.0000
usemtl grey
s off
f 18/1/1 11/2/1 17/3/1
f 11/2/2 8/4/2 13/5/2
f 8/4/3 24/6/3 13/5/3
f 15/7/4 32/8/4 16/9/4
f 7/10/5 21/11/5 3/12/5
f 4/13/6 22/14/6 8/4/6
f 10/15/7 26/16/7 2/17/7
f 5/18/6 25/19/6 1/20/6
f 14/21/7 20/22/7 7/10/7
f 13/5/8 19/23/8 14/21/8
f 12/24/2 7/10/2 3/25/2
f 11/2/2 14/21/2 12/24/2
f 23/26/9 3/25/9 21/27/9
f 17/3/4 12/24/4 23/26/4
f 10/15/10 18/28/10 17/29/10
f 16/9/10 20/22/10 19/23/10
f 1/20/10 20/22/10 5/18/10
f 6/30/10 18/28/10 2/17/10
f 9/31/10 21/32/10 1/20/10
f 10/15/10 23/33/10 9/31/10
f 15/7/10 22/14/10 6/30/10
f 16/9/10 24/6/10 15/7/10
f 31/34/10 26/16/10 30/35/10
f 32/8/10 25/19/10 27/36/10
f 31/34/10 29/37/10 32/8/10
f 9/31/8 30/35/8 10/15/8
f 2/17/5 28/38/5 6/30/5
f 16/9/1 27/36/1 5/18/1
f 6/30/9 31/34/9 15/7/9
f 1/20/3 29/37/3 9/31/3
f 43/39/1 50/40/1 49/41/1
f 43/39/10 40/42/10 36/43/10
f 56/44/3 40/42/3 45/45/3
f 64/46/4 47/47/4 48/48/4
f 53/49/5 39/50/5 35/51/5
f 54/52/6 36/53/6 40/42/6
f 58/54/7 42/55/7 34/56/7
f 57/57/6 37/58/6 33/59/6
f 52/60/7 46/61/7 39/50/7
f 51/62/8 45/45/8 46/61/8
f 39/50/10 44/63/10 35/64/10
f 46/61/10 43/39/10 44/63/10
f 35/64/9 55/65/9 53/66/9
f 44/63/4 49/41/4 55/65/4
f 42/55/2 50/67/2 34/56/2
f 48/48/2 52/60/2 37/58/2
f 52/60/2 33/59/2 37/58/2
f 50/67/2 38/68/2 34/56/2
f 53/69/2 41/70/2 33/59/2
f 55/71/2 42/55/2 41/70/2
f 54/52/2 47/47/2 38/68/2
f 56/44/2 48/48/2 47/47/2
f 62/72/2 60/73/2 63/74/2
f 57/57/2 64/46/2 59/75/2
f 61/76/2 63/74/2 64/46/2
f 62/72/8 41/70/8 42/55/8
f 60/73/5 34/56/5 38/68/5
f 59/75/1 48/48/1 37/58/1
f 63/74/9 38/68/9 47/47/9
f 61/76/3 33/59/3 41/70/3
f 18/1/1 4/77/1 11/2/1
f 11/2/2 4/77/2 8/4/2
f 8/4/3 22/14/3 24/6/3
f 15/7/4 31/34/4 32/8/4
f 7/10/5 20/22/5 21/11/5
f 4/13/6 18/78/6 22/14/6
f 10/15/7 30/35/7 26/16/7
f 5/18/6 27/36/6 25/19/6
f 14/21/7 19/23/7 20/22/7
f 13/5/8 24/6/8 19/23/8
f 12/24/2 14/21/2 7/10/2
f 11/2/2 13/5/2 14/21/2
f 23/26/9 12/24/9 3/25/9
f 17/3/4 11/2/4 12/24/4
f 10/15/10 2/17/10 18/28/10
f 16/9/10 5/18/10 20/22/10
f 1/20/10 21/32/10 20/22/10
f 6/30/10 22/14/10 18/28/10
f 9/31/10 23/33/10 21/32/10
f 10/15/10 17/29/10 23/33/10
f 15/7/10 24/6/10 22/14/10
f 16/9/10 19/23/10 24/6/10
f 31/34/10 28/38/10 26/16/10
f 32/8/10 29/37/10 25/19/10
f 31/34/10 30/35/10 29/37/10
f 9/31/8 29/37/8 30/35/8
f 2/17/5 26/16/5 28/38/5
f 16/9/1 32/8/1 27/36/1
f 6/30/9 28/38/9 31/34/9
f 1/20/3 25/19/3 29/37/3
f 43/39/1 36/43/1 50/40/1
f 43/39/10 45/45/10 40/42/10
f 56/44/3 54/52/3 40/42/3
f 64/46/4 63/74/4 47/47/4
f 53/49/5 52/60/5 39/50/5
f 54/52/6 50/79/6 36/53/6
f 58/54/7 62/72/7 42/55/7
f 57/57/6 59/75/6 37/58/6
f 52/60/7 51/62/7 46/61/7
f 51/62/8 56/44/8 45/45/8
f 39/50/10 46/61/10 44/63/10
f 46/61/10 45/45/10 43/39/10
f 35/64/9 44/63/9 55/65/9
f 44/63/4 43/39/4 49/41/4
f 42/55/2 49/80/2 50/67/2
f 48/48/2 51/62/2 52/60/2
f 52/60/2 53/69/2 33/59/2
f 50/67/2 54/52/2 38/68/2
f 53/69/2 55/71/2 41/70/2
f 55/71/2 49/80/2 42/55/2
f 54/52/2 56/44/2 47/47/2
f 56/44/2 51/62/2 48/48/2
f 62/72/2 58/54/2 60/73/2
f 57/57/2 61/76/2 64/46/2
f 61/76/2 62/72/2 63/74/2
f 62/72/8 61/76/8 41/70/8
f 60/73/5 58/54/5 34/56/5
f 59/75/1 64/46/1 48/48/1
f 63/74/9 60/73/9 38/68/9
f 61/76/3 57/57/3 33/59/3
